{"glyphs":{"0":{"ha":797,"x_min":44,"x_max":753,"o":"m 753 518 q 735 344 753 431 q 680 172 718 257 q 569 35 642 88 q 397 -17 496 -17 q 143 127 242 -17 q 44 518 44 271 q 78 769 44 654 q 195 963 113 883 q 399 1042 278 1042 q 560 997 490 1042 q 672 876 631 951 q 733 709 713 800 q 753 518 753 618 m 585 513 q 577 618 585 564 q 551 734 569 672 q 494 835 533 796 q 399 874 454 874 q 303 834 343 874 q 245 733 264 794 q 219 617 226 671 q 211 513 211 563 q 261 253 211 357 q 399 150 311 150 q 535 253 486 150 q 585 513 585 356 z "},"1":{"ha":256,"x_min":44,"x_max":211,"o":"m 211 0 l 44 0 l 44 1025 l 211 1025 l 211 0 z "},"2":{"ha":763,"x_min":44,"x_max":718,"o":"m 718 1 l 44 1 q 346 385 268 271 q 493 726 493 600 q 449 838 493 800 q 342 875 406 875 q 208 837 275 875 q 94 725 142 799 l 94 961 q 342 1042 211 1042 q 573 947 486 1042 q 660 726 660 853 q 634 570 660 651 q 560 409 608 489 q 478 281 513 329 q 394 168 444 232 l 718 168 l 718 1 z "},"3":{"ha":596,"x_min":44,"x_max":551,"o":"m 183 1044 q 435 967 322 1044 q 547 754 547 889 q 517 628 547 689 q 436 526 488 568 q 551 281 551 428 q 448 66 551 153 q 189 -21 344 -21 q 44 0 114 -21 l 44 178 q 186 146 107 146 q 324 178 263 146 q 385 281 385 210 q 324 402 385 357 q 185 447 263 447 l 185 614 q 322 649 264 614 q 379 757 379 683 q 343 829 379 800 q 265 868 307 858 q 181 878 222 878 q 44 847 100 878 l 44 1025 q 183 1044 111 1044 z "},"4":{"ha":774,"x_min":44,"x_max":729,"o":"m 729 314 l 639 314 l 639 0 l 472 0 l 472 314 l 44 314 l 44 458 l 535 1046 l 639 1046 l 639 482 l 729 482 l 729 314 m 472 482 l 472 711 l 281 482 l 472 482 z "},"5":{"ha":679,"x_min":44,"x_max":635,"o":"m 582 857 l 264 857 l 264 661 q 531 555 426 656 q 635 319 635 454 q 521 74 635 175 q 249 -28 407 -28 q 44 18 140 -28 l 44 217 q 249 139 122 139 q 403 189 339 139 q 467 318 467 239 q 399 450 467 406 q 239 494 331 494 q 193 492 217 494 q 141 484 169 489 q 97 478 113 479 l 97 1024 l 582 1024 l 582 857 z "},"6":{"ha":735,"x_min":44,"x_max":690,"o":"m 382 601 q 601 513 513 601 q 690 290 690 425 q 601 69 690 157 q 372 -19 511 -19 q 224 13 289 -19 q 120 101 158 46 q 63 220 82 156 q 44 356 44 285 q 167 759 44 561 q 460 1046 290 957 l 565 914 q 396 786 481 875 q 263 583 311 697 q 382 601 325 601 m 524 289 q 489 393 524 351 q 383 435 454 435 q 213 376 300 435 q 219 300 213 336 q 240 227 225 264 q 288 168 256 190 q 367 146 321 146 q 524 289 524 146 z "},"7":{"ha":760,"x_min":44,"x_max":715,"o":"m 715 1024 l 243 -64 l 89 0 l 460 857 l 44 857 l 44 1024 l 715 1024 z "},"8":{"ha":765,"x_min":44,"x_max":721,"o":"m 701 738 q 604 510 701 603 q 721 276 721 417 q 620 60 721 153 q 382 -32 519 -32 q 145 60 246 -32 q 44 276 44 151 q 161 510 44 418 q 64 738 64 603 q 157 963 64 869 q 382 1056 250 1056 q 608 962 514 1056 q 701 738 701 868 m 535 738 q 490 844 535 800 q 382 889 444 889 q 273 843 315 889 q 231 736 231 797 q 276 631 231 676 q 381 586 321 586 q 488 628 442 586 q 535 738 535 671 m 501 176 q 527 195 501 176 q 554 278 554 215 q 500 379 554 340 q 382 418 446 418 q 265 378 318 418 q 211 278 211 339 q 265 176 211 215 q 382 136 318 136 q 501 176 447 136 z "},"9":{"ha":735,"x_min":44,"x_max":690,"o":"m 690 661 q 567 265 688 457 q 275 -19 446 74 l 169 113 q 339 240 253 150 q 474 443 425 331 q 354 425 411 425 q 136 510 228 425 q 44 735 44 594 q 134 958 44 869 q 363 1046 224 1046 q 490 1024 433 1046 q 583 964 546 1001 q 644 876 619 926 q 680 772 669 825 q 690 661 690 719 m 524 650 q 488 816 524 750 q 371 882 451 882 q 213 738 213 882 q 248 633 213 675 q 354 592 283 592 q 524 650 436 592 z "}," ":{"ha":418,"x_min":0,"x_max":0,"o":""},"!":{"ha":328,"x_min":44,"x_max":283,"o":"m 283 892 q 243 551 283 797 q 193 229 203 306 l 135 229 q 98 468 122 324 q 59 716 74 613 q 44 892 44 819 q 80 1020 44 965 q 164 1075 115 1075 q 248 1020 213 1075 q 283 892 283 965 m 231 164 q 245 150 231 164 q 260 96 260 136 q 231 28 260 56 q 164 0 203 0 q 97 28 125 0 q 68 96 68 56 q 97 164 68 136 q 164 192 125 192 q 231 164 203 192 z "},"\"":{"ha":488,"x_min":44,"x_max":443,"o":"m 443 924 q 397 778 443 844 q 272 707 351 713 l 272 728 q 336 890 333 793 q 277 919 301 893 q 253 981 253 944 q 279 1044 253 1018 q 343 1071 306 1071 q 419 1028 394 1071 q 443 924 443 985 m 235 924 q 189 778 235 844 q 64 707 143 713 l 64 728 q 128 890 125 793 q 69 919 93 893 q 44 981 44 944 q 71 1044 44 1018 q 135 1071 97 1071 q 210 1028 186 1071 q 235 924 235 985 z "},"#":{"ha":603,"x_min":44,"x_max":558,"o":"m 558 529 l 431 529 l 388 313 l 272 313 l 314 529 l 222 529 l 179 313 l 64 313 l 106 529 l 44 529 l 44 636 l 128 636 l 147 738 l 44 738 l 44 844 l 168 844 l 203 1022 l 318 1022 l 283 844 l 376 844 l 411 1022 l 526 1022 l 492 844 l 558 844 l 558 738 l 471 738 l 451 636 l 558 636 l 558 529 m 356 738 l 263 738 l 243 636 l 336 636 l 356 738 z "},"$":{"ha":731,"x_min":44,"x_max":686,"o":"m 686 824 l 564 710 q 442 786 511 767 l 442 582 q 517 537 488 557 q 579 483 546 517 q 629 405 613 450 q 646 304 646 360 q 588 156 646 218 q 442 72 531 93 l 442 -1 l 336 -1 l 336 64 q 181 115 260 71 q 44 219 101 158 l 165 335 q 336 232 247 250 l 336 449 q 256 494 285 476 q 191 545 228 513 q 137 621 154 578 q 119 718 119 664 q 182 872 119 808 q 336 953 244 936 l 336 1024 l 442 1024 l 442 956 q 686 824 578 938 m 336 643 l 336 779 q 288 721 288 760 q 336 643 288 681 m 442 247 q 479 307 479 269 q 442 382 479 344 l 442 247 z "},"%":{"ha":846,"x_min":44,"x_max":801,"o":"m 397 774 q 383 658 397 714 q 326 555 368 601 q 221 508 285 508 q 94 580 143 508 q 44 774 44 651 q 89 958 44 881 q 221 1035 133 1035 q 353 958 308 1035 q 397 774 397 881 m 314 771 q 310 824 314 797 q 298 882 307 851 q 269 932 289 913 q 221 951 249 951 q 173 932 193 951 q 144 881 153 913 q 131 823 135 850 q 128 771 128 796 q 152 642 128 693 q 219 590 176 590 q 289 642 264 590 q 314 771 314 693 m 788 1022 l 190 0 l 54 0 l 654 1022 l 788 1022 m 801 258 q 792 172 801 215 q 765 87 783 129 q 709 19 746 44 q 624 -7 672 -7 q 497 65 546 -7 q 449 258 449 136 q 493 442 449 365 q 625 519 538 519 q 757 442 713 519 q 801 258 801 365 m 718 256 q 715 309 718 282 q 702 367 711 336 q 673 417 693 397 q 625 436 653 436 q 577 417 597 436 q 548 366 557 397 q 535 308 539 335 q 532 256 532 281 q 556 128 532 179 q 625 76 581 76 q 694 128 669 76 q 718 256 718 179 z "},"&":{"ha":990,"x_min":44,"x_max":946,"o":"m 946 0 l 729 0 l 633 114 q 317 -22 472 -22 q 167 19 233 -22 q 68 136 101 60 q 44 243 44 188 q 107 406 44 333 q 268 549 169 479 q 213 617 231 593 q 179 682 196 640 q 163 768 163 724 q 240 950 163 876 q 426 1024 318 1024 q 607 953 531 1024 q 683 778 683 882 q 514 515 683 633 l 640 364 q 740 553 708 453 l 899 504 q 750 235 856 365 l 946 0 m 517 781 q 489 836 517 815 q 425 857 461 857 q 357 833 385 857 q 329 768 329 808 q 334 740 329 754 q 349 712 339 726 q 366 688 358 697 q 388 663 374 679 q 407 643 403 647 q 460 681 444 669 q 496 722 475 693 q 517 781 517 751 m 526 242 l 376 421 q 214 233 214 308 q 244 169 214 193 q 317 144 275 144 q 526 242 413 144 z "},"'":{"ha":279,"x_min":44,"x_max":235,"o":"m 235 924 q 189 778 235 844 q 64 707 143 713 l 64 728 q 128 890 125 793 q 69 919 93 893 q 44 981 44 944 q 71 1044 44 1018 q 135 1071 97 1071 q 210 1028 186 1071 q 235 924 235 985 z "},"(":{"ha":458,"x_min":44,"x_max":414,"o":"m 414 -154 l 283 -258 q 44 419 44 36 q 283 1097 44 803 l 414 993 q 211 419 211 744 q 414 -154 211 94 z "},")":{"ha":458,"x_min":44,"x_max":414,"o":"m 174 -258 l 44 -154 q 247 419 247 97 q 44 993 247 742 l 174 1097 q 414 419 414 801 q 174 -258 414 38 z "},"*":{"ha":447,"x_min":44,"x_max":403,"o":"m 403 943 l 286 868 l 335 736 l 224 822 l 113 736 l 161 868 l 44 943 l 185 943 l 224 1078 l 263 943 l 403 943 z "},"+":{"ha":613,"x_min":44,"x_max":568,"o":"m 568 447 l 390 447 l 390 269 l 224 269 l 224 447 l 44 447 l 44 614 l 222 614 l 222 792 l 389 792 l 389 614 l 568 614 l 568 447 z "},",":{"ha":279,"x_min":44,"x_max":235,"o":"m 235 35 q 189 -110 235 -44 q 64 -182 143 -176 l 64 -161 q 128 1 125 -96 q 69 30 93 4 q 44 92 44 56 q 71 156 44 129 q 135 182 97 182 q 210 139 186 182 q 235 35 235 96 z "},"-":{"ha":310,"x_min":0,"x_max":310,"o":"m 310 846 l 0 846 l 0 882 l 53 935 l 0 988 l 0 1025 l 310 1025 l 310 988 l 258 935 l 310 882 l 310 846 m 217 474 l 92 474 l 92 550 l 217 550 l 217 474 m 310 0 l 0 0 l 0 36 l 53 89 l 0 142 l 0 179 l 310 179 l 310 142 l 258 89 l 310 36 l 310 0 z "},".":{"ha":281,"x_min":44,"x_max":236,"o":"m 208 164 q 222 150 208 164 q 236 96 236 136 q 208 28 236 56 q 140 0 181 0 q 72 28 100 0 q 44 96 44 56 q 72 164 44 136 q 140 192 100 192 q 208 164 181 192 z "},"/":{"ha":875,"x_min":44,"x_max":831,"o":"m 831 1111 l 226 -278 l 44 -278 l 649 1111 l 831 1111 z "},":":{"ha":281,"x_min":44,"x_max":236,"o":"m 208 428 q 222 414 208 428 q 236 360 236 400 q 208 292 236 319 q 140 264 181 264 q 72 292 100 264 q 44 360 44 319 q 72 428 44 400 q 140 456 100 456 q 208 428 181 456 m 208 164 q 222 150 208 164 q 236 96 236 136 q 208 28 236 56 q 140 0 181 0 q 72 28 100 0 q 44 96 44 56 q 72 164 44 136 q 140 192 100 192 q 208 164 181 192 z "},";":{"ha":282,"x_min":44,"x_max":238,"o":"m 236 360 q 207 292 235 319 q 140 264 179 264 q 72 292 100 264 q 44 360 44 319 q 72 428 44 400 q 140 456 100 456 q 208 428 181 456 q 236 360 236 400 m 238 35 q 192 -112 238 -44 q 67 -182 147 -179 l 67 -161 q 131 1 128 -96 q 72 30 96 4 q 47 92 47 56 q 74 156 47 129 q 138 182 100 182 q 213 139 189 182 q 238 35 238 96 z "},"<":{"ha":438,"x_min":44,"x_max":393,"o":"m 393 214 l 268 214 l 44 549 l 268 883 l 393 883 l 169 549 l 393 214 z "},"=":{"ha":544,"x_min":0,"x_max":544,"o":"m 544 846 l 0 846 l 0 882 l 53 935 l 0 988 l 0 1025 l 544 1025 l 544 988 l 492 935 l 544 882 l 544 846 m 401 513 q 363 420 401 458 q 272 382 325 382 q 181 420 219 382 q 143 513 143 458 q 181 603 143 565 q 272 642 219 642 q 363 603 325 642 q 401 513 401 565 m 544 0 l 0 0 l 0 36 l 53 89 l 0 142 l 0 179 l 544 179 l 544 142 l 492 89 l 544 36 l 544 0 z "},">":{"ha":438,"x_min":44,"x_max":393,"o":"m 393 549 l 169 214 l 44 214 l 268 549 l 44 883 l 169 883 l 393 549 z "},"?":{"ha":443,"x_min":44,"x_max":399,"o":"m 357 635 q 315 572 347 619 q 264 496 282 524 q 229 432 246 468 q 213 376 213 396 q 233 313 213 344 l 93 221 q 44 376 44 294 q 89 524 44 457 q 130 586 99 540 q 179 660 161 632 q 214 724 197 688 q 231 781 231 760 q 196 865 231 831 q 117 900 161 900 q 82 894 104 900 l 161 1063 q 330 966 261 1049 q 399 781 399 883 q 357 635 399 701 m 219 164 q 233 150 219 164 q 247 96 247 136 q 219 28 247 56 q 151 0 192 0 q 83 28 111 0 q 56 96 56 56 q 83 164 56 136 q 151 192 111 192 q 219 164 192 192 z "},"@":{"ha":1100,"x_min":44,"x_max":1056,"o":"m 1056 510 q 860 213 1056 319 l 533 213 q 385 264 450 213 q 319 396 319 315 q 355 498 319 460 q 458 572 390 536 l 567 631 q 519 650 544 650 l 443 650 l 443 796 l 519 796 q 695 706 626 796 q 764 504 764 615 l 764 358 l 815 358 q 884 422 858 381 q 910 510 910 463 q 808 762 910 657 q 557 867 706 867 q 300 763 408 867 q 192 510 192 658 q 300 257 192 361 q 557 153 408 153 l 893 153 l 893 6 l 557 6 q 197 153 349 6 q 44 510 44 301 q 197 866 44 718 q 557 1014 349 1014 q 910 866 765 1014 q 1056 510 1056 718 m 617 358 l 617 492 q 574 470 597 482 q 539 452 551 458 q 512 438 526 446 q 490 426 497 431 q 476 416 483 421 q 467 406 469 411 q 465 396 465 401 q 489 368 465 378 q 533 358 513 358 l 617 358 z "},"A":{"ha":1110,"x_min":44,"x_max":1065,"o":"m 1065 0 l 885 0 l 764 282 l 346 282 l 225 0 l 44 0 l 481 1024 l 629 1024 l 1065 0 m 693 450 l 554 774 l 417 450 l 693 450 z "},"B":{"ha":803,"x_min":44,"x_max":758,"o":"m 758 288 q 660 81 758 161 q 425 0 561 0 l 44 0 l 44 1024 l 382 1024 q 594 946 515 1024 q 672 758 672 868 q 590 557 672 643 q 713 442 668 515 q 758 288 758 369 m 507 758 q 470 831 507 804 q 382 857 433 857 l 211 857 l 211 608 l 263 608 q 443 640 379 608 q 507 758 507 671 m 425 167 q 540 197 489 167 q 592 289 592 228 q 533 396 592 351 q 369 440 475 440 l 211 440 l 211 167 l 425 167 z "},"C":{"ha":1022,"x_min":44,"x_max":978,"o":"m 978 57 q 603 -35 761 -35 q 361 11 469 -35 q 185 134 253 57 q 81 306 118 211 q 44 504 44 401 q 82 706 44 608 q 190 881 119 803 q 372 1005 260 958 q 621 1051 483 1051 q 978 965 781 1051 l 978 781 q 619 885 781 885 q 318 772 424 885 q 213 503 213 658 q 315 242 213 351 q 606 133 417 133 q 978 239 747 133 l 978 57 z "},"D":{"ha":1042,"x_min":44,"x_max":997,"o":"m 488 1024 q 851 881 706 1024 q 997 518 997 738 q 964 328 997 419 q 868 163 931 236 q 707 44 806 89 q 488 0 608 0 l 44 0 l 44 1024 l 488 1024 m 741 272 q 786 323 741 272 q 831 518 831 375 q 734 759 831 661 q 488 857 638 857 l 211 857 l 211 168 l 488 168 q 741 272 651 168 z "},"E":{"ha":679,"x_min":44,"x_max":635,"o":"m 635 0 l 44 0 l 44 1024 l 614 1024 l 614 857 l 211 857 l 211 596 l 597 596 l 597 429 l 211 429 l 211 168 l 635 168 l 635 0 z "},"F":{"ha":658,"x_min":44,"x_max":614,"o":"m 614 857 l 213 857 l 213 596 l 597 596 l 597 429 l 213 429 l 213 0 l 44 0 l 44 1024 l 614 1024 l 614 857 z "},"G":{"ha":1040,"x_min":44,"x_max":996,"o":"m 996 39 q 610 -32 750 -32 q 365 15 475 -32 q 187 138 256 61 q 81 311 118 215 q 44 510 44 407 q 81 708 44 613 q 187 881 118 804 q 365 1005 256 958 q 610 1051 475 1051 q 947 979 761 1051 l 947 800 q 779 859 874 833 q 610 885 685 885 q 316 774 419 885 q 213 510 213 663 q 316 245 213 356 q 610 135 419 135 q 829 167 704 135 l 829 363 l 646 363 l 646 529 l 996 529 l 996 39 z "},"H":{"ha":981,"x_min":44,"x_max":936,"o":"m 936 0 l 769 0 l 769 429 l 211 429 l 211 0 l 44 0 l 44 1025 l 211 1025 l 211 596 l 769 596 l 769 1025 l 936 1025 l 936 0 z "},"I":{"ha":256,"x_min":44,"x_max":211,"o":"m 211 0 l 44 0 l 44 1025 l 211 1025 l 211 0 z "},"J":{"ha":456,"x_min":44,"x_max":411,"o":"m 411 21 q 326 -183 411 -99 q 121 -268 240 -268 l 44 -268 l 44 -101 l 121 -101 q 208 -65 172 -101 q 243 21 243 -29 l 243 1025 l 411 1025 l 411 21 z "},"K":{"ha":983,"x_min":44,"x_max":939,"o":"m 939 0 l 703 0 l 211 490 l 211 0 l 44 0 l 44 1025 l 211 1025 l 211 586 l 617 1024 l 844 1024 l 397 540 l 939 0 z "},"L":{"ha":704,"x_min":44,"x_max":660,"o":"m 660 0 l 44 0 l 44 1025 l 211 1025 l 211 168 l 660 168 l 660 0 z "},"M":{"ha":1071,"x_min":44,"x_max":1026,"o":"m 1026 0 l 860 0 l 860 782 l 536 364 l 211 782 l 211 0 l 44 0 l 44 1024 l 235 1024 l 536 635 l 838 1024 l 1026 1024 l 1026 0 z "},"N":{"ha":1072,"x_min":44,"x_max":1028,"o":"m 1028 0 l 867 0 l 211 767 l 211 0 l 44 0 l 44 1024 l 211 1024 l 861 263 l 861 1025 l 1028 1025 l 1028 0 z "},"O":{"ha":1194,"x_min":44,"x_max":1150,"o":"m 990 889 q 1070 816 990 889 q 1150 513 1150 743 q 990 136 1150 282 q 597 -10 831 -10 q 205 136 365 -10 q 44 513 44 282 q 204 888 44 742 q 597 1035 364 1035 q 990 889 829 1035 m 983 513 q 873 771 983 674 q 597 868 763 868 q 322 771 433 868 q 211 513 211 674 q 322 254 211 351 q 597 157 433 157 q 872 253 761 157 q 983 513 983 350 z "},"P":{"ha":749,"x_min":44,"x_max":704,"o":"m 620 940 q 662 898 620 940 q 704 729 704 856 q 620 519 704 603 q 410 435 536 435 l 211 435 l 211 0 l 44 0 l 44 1024 l 410 1024 q 620 940 536 1024 m 503 636 q 520 653 503 636 q 538 729 538 671 q 503 822 538 788 q 410 857 468 857 l 211 857 l 211 601 l 410 601 q 503 636 468 601 z "},"Q":{"ha":1194,"x_min":44,"x_max":1150,"o":"m 1150 497 q 1043 179 1150 315 q 760 -4 936 43 q 1046 -69 885 -69 q 1136 -64 1097 -69 l 967 -232 q 714 -167 833 -219 q 522 -21 594 -115 q 179 147 314 4 q 44 497 44 289 q 204 873 44 726 q 597 1019 364 1019 q 990 874 829 1019 q 1150 497 1150 728 m 983 497 q 873 756 983 658 q 597 853 763 853 q 322 756 433 853 q 211 497 211 658 q 322 239 211 336 q 597 142 433 142 q 872 238 761 142 q 983 497 983 335 z "},"R":{"ha":931,"x_min":44,"x_max":886,"o":"m 886 0 l 660 0 q 571 122 619 50 q 489 242 522 193 q 416 338 456 290 q 333 409 376 385 q 242 433 290 433 l 211 433 l 211 0 l 44 0 l 44 1024 l 358 1024 q 573 935 494 1024 q 651 728 651 847 q 617 583 651 651 q 518 476 582 515 q 681 256 567 426 q 886 0 794 85 m 486 728 q 451 819 486 782 q 358 857 415 857 l 211 857 l 211 600 l 358 600 q 451 638 417 600 q 486 728 486 675 z "},"S":{"ha":704,"x_min":44,"x_max":660,"o":"m 213 768 q 246 688 213 725 q 328 624 279 650 q 436 561 378 597 q 544 488 494 525 q 626 388 593 450 q 660 249 660 325 q 562 47 660 125 q 332 -32 464 -32 q 68 56 203 -32 l 68 269 q 191 176 118 218 q 325 135 264 135 q 440 165 388 135 q 493 250 493 194 q 478 314 493 285 q 432 369 464 343 q 376 408 400 394 q 307 447 353 422 q 207 505 244 481 q 127 568 169 529 q 65 657 85 607 q 44 768 44 707 q 137 966 44 886 q 372 1046 229 1046 q 590 983 482 1046 l 590 774 q 488 849 546 819 q 372 879 429 879 q 263 850 314 879 q 213 768 213 821 z "},"T":{"ha":963,"x_min":44,"x_max":918,"o":"m 918 857 l 565 857 l 565 0 l 399 0 l 399 857 l 44 857 l 44 1024 l 918 1024 l 918 857 z "},"U":{"ha":996,"x_min":44,"x_max":951,"o":"m 951 363 q 913 194 951 269 q 808 74 874 119 q 663 3 743 28 q 497 -21 583 -21 q 278 22 379 -21 q 111 153 178 64 q 44 363 44 242 l 44 1019 l 211 1019 l 211 363 q 296 201 211 256 q 497 146 381 146 q 700 202 615 146 q 785 363 785 258 l 785 1019 l 951 1019 l 951 363 z "},"V":{"ha":1028,"x_min":44,"x_max":983,"o":"m 983 1022 l 592 0 l 436 0 l 44 1022 l 222 1022 l 514 263 l 806 1022 l 983 1022 z "},"W":{"ha":1658,"x_min":44,"x_max":1614,"o":"m 1614 1024 l 1263 0 l 1108 0 l 829 778 l 550 0 l 396 0 l 44 1024 l 221 1024 l 475 283 l 740 1024 l 918 1024 l 1183 283 l 1438 1024 l 1614 1024 z "},"X":{"ha":1188,"x_min":44,"x_max":1143,"o":"m 1143 0 l 926 0 l 593 397 l 261 0 l 44 0 l 485 528 l 69 1024 l 288 1024 l 593 657 l 900 1024 l 1117 1024 l 701 528 l 1143 0 z "},"Y":{"ha":1031,"x_min":44,"x_max":986,"o":"m 986 1025 l 599 531 l 599 0 l 432 0 l 432 531 l 44 1025 l 256 1025 l 515 694 l 774 1025 l 986 1025 z "},"Z":{"ha":1021,"x_min":44,"x_max":976,"o":"m 976 1024 l 367 167 l 968 167 l 968 0 l 44 0 l 654 857 l 85 857 l 85 1024 l 976 1024 z "},"[":{"ha":397,"x_min":44,"x_max":353,"o":"m 353 -247 l 44 -247 l 44 1092 l 353 1092 l 353 925 l 211 925 l 211 -81 l 353 -81 l 353 -247 z "},"\\":{"ha":875,"x_min":44,"x_max":831,"o":"m 649 -278 l 44 1111 l 226 1111 l 831 -278 l 649 -278 z "},"]":{"ha":397,"x_min":44,"x_max":353,"o":"m 353 -247 l 44 -247 l 44 -81 l 186 -81 l 186 925 l 44 925 l 44 1092 l 353 1092 l 353 -247 z "},"^":{"ha":732,"x_min":44,"x_max":688,"o":"m 688 583 l 524 583 l 367 872 l 208 583 l 44 583 l 285 1022 l 447 1022 l 688 583 z "},"_":{"ha":310,"x_min":0,"x_max":310,"o":"m 310 846 l 0 846 l 0 882 l 53 935 l 0 988 l 0 1025 l 310 1025 l 310 988 l 258 935 l 310 882 l 310 846 m 310 0 l 0 0 l 0 36 l 53 89 l 0 142 l 0 179 l 310 179 l 310 142 l 258 89 l 310 36 l 310 0 z "},"`":{"ha":611,"x_min":88,"x_max":539,"o":"m 135 1328 l 539 1169 l 492 1047 l 88 1206 l 135 1328 z "},"a":{"ha":750,"x_min":0,"x_max":750,"o":"m 750 846 l 0 846 l 0 882 l 53 935 l 0 988 l 0 1025 l 750 1025 l 750 988 l 697 935 l 750 882 l 750 846 m 693 210 l 557 210 l 492 364 l 263 364 l 197 210 l 61 210 l 319 814 l 436 814 l 693 210 m 750 0 l 0 0 l 0 36 l 53 89 l 0 142 l 0 179 l 750 179 l 750 142 l 697 89 l 750 36 l 750 0 m 439 489 l 378 632 l 317 489 l 439 489 z "},"b":{"ha":639,"x_min":0,"x_max":639,"o":"m 639 846 l 0 846 l 0 882 l 53 935 l 0 988 l 0 1025 l 639 1025 l 639 988 l 586 935 l 639 882 l 639 846 m 542 313 q 358 211 492 211 l 129 211 l 129 814 l 333 814 q 464 766 415 814 q 513 651 513 718 q 474 542 513 592 q 560 388 560 483 q 542 313 560 347 m 386 650 q 333 689 386 689 l 254 689 l 254 582 q 386 650 386 582 m 358 336 q 409 348 385 336 q 433 386 433 360 q 406 436 433 415 q 326 457 378 457 l 254 457 l 254 336 l 358 336 m 639 0 l 0 0 l 0 36 l 53 89 l 0 142 l 0 179 l 639 179 l 639 142 l 586 89 l 639 36 l 639 0 z "},"c":{"ha":694,"x_min":0,"x_max":694,"o":"m 694 846 l 0 846 l 0 882 l 53 935 l 0 988 l 0 1025 l 694 1025 l 694 988 l 642 935 l 694 882 l 694 846 m 610 246 q 425 203 510 203 q 198 287 290 203 q 106 504 106 371 q 199 729 106 642 q 432 817 292 817 q 610 778 506 817 l 610 640 q 432 692 510 692 q 289 641 346 692 q 232 508 232 590 q 286 376 232 425 q 424 328 340 328 q 610 382 496 328 l 610 246 m 694 0 l 0 0 l 0 36 l 53 89 l 0 142 l 0 179 l 694 179 l 694 142 l 642 89 l 694 36 l 694 0 z "},"d":{"ha":754,"x_min":0,"x_max":754,"o":"m 754 846 l 0 846 l 0 882 l 53 935 l 0 988 l 0 1025 l 754 1025 l 754 988 l 701 935 l 754 882 l 754 846 m 665 515 q 580 301 665 392 q 365 211 494 211 l 101 211 l 101 814 l 365 814 q 585 724 506 814 q 665 515 665 635 m 365 336 q 490 387 440 336 q 540 514 540 438 q 496 637 540 585 q 365 689 451 689 l 226 689 l 226 336 l 365 336 m 754 0 l 0 0 l 0 36 l 53 89 l 0 142 l 0 179 l 754 179 l 754 142 l 701 89 l 754 36 l 754 0 z "},"e":{"ha":546,"x_min":0,"x_max":546,"o":"m 546 846 l 0 846 l 0 882 l 53 935 l 0 988 l 0 1025 l 546 1025 l 546 988 l 493 935 l 546 882 l 546 846 m 457 211 l 96 211 l 96 814 l 444 814 l 444 689 l 221 689 l 221 575 l 435 575 l 435 450 l 221 450 l 221 336 l 457 336 l 457 211 m 546 0 l 0 0 l 0 36 l 53 89 l 0 142 l 0 179 l 546 179 l 546 142 l 493 89 l 546 36 l 546 0 z "},"f":{"ha":542,"x_min":0,"x_max":542,"o":"m 542 846 l 0 846 l 0 882 l 53 935 l 0 988 l 0 1025 l 542 1025 l 542 988 l 489 935 l 542 882 l 542 846 m 446 689 l 222 689 l 222 575 l 436 575 l 436 450 l 222 450 l 222 210 l 97 210 l 97 814 l 446 814 l 446 689 m 542 0 l 0 0 l 0 36 l 53 89 l 0 142 l 0 179 l 542 179 l 542 142 l 489 89 l 542 36 l 542 0 z "},"g":{"ha":722,"x_min":0,"x_max":722,"o":"m 722 846 l 0 846 l 0 882 l 53 935 l 0 988 l 0 1025 l 722 1025 l 722 988 l 669 935 l 722 882 l 722 846 m 632 246 q 407 204 474 204 q 173 295 257 204 q 89 511 89 386 q 181 728 89 640 q 404 817 274 817 q 582 783 490 817 l 582 647 q 406 692 490 692 q 269 641 324 692 q 214 511 214 590 q 265 383 214 438 q 407 329 315 329 q 507 342 447 329 l 507 414 l 426 414 l 426 539 l 632 539 l 632 246 m 722 0 l 0 0 l 0 36 l 53 89 l 0 142 l 0 179 l 722 179 l 722 142 l 669 89 l 722 36 l 722 0 z "},"h":{"ha":740,"x_min":0,"x_max":740,"o":"m 740 846 l 0 846 l 0 882 l 53 935 l 0 988 l 0 1025 l 740 1025 l 740 988 l 688 935 l 740 882 l 740 846 m 646 210 l 521 210 l 521 450 l 219 450 l 219 210 l 94 210 l 94 814 l 219 814 l 219 575 l 521 575 l 521 814 l 646 814 l 646 210 m 740 0 l 0 0 l 0 36 l 53 89 l 0 142 l 0 179 l 740 179 l 740 142 l 688 89 l 740 36 l 740 0 z "},"i":{"ha":310,"x_min":0,"x_max":310,"o":"m 310 846 l 0 846 l 0 882 l 53 935 l 0 988 l 0 1025 l 310 1025 l 310 988 l 258 935 l 310 882 l 310 846 m 217 210 l 92 210 l 92 814 l 217 814 l 217 210 m 310 0 l 0 0 l 0 36 l 53 89 l 0 142 l 0 179 l 310 179 l 310 142 l 258 89 l 310 36 l 310 0 z "},"j":{"ha":411,"x_min":0,"x_max":411,"o":"m 411 846 l 0 846 l 0 882 l 53 935 l 0 988 l 0 1025 l 411 1025 l 411 988 l 358 935 l 411 882 l 411 846 m 321 394 q 267 265 321 318 q 138 211 214 211 l 92 211 l 92 336 l 138 336 q 178 353 161 336 q 196 394 196 371 l 196 814 l 321 814 l 321 394 m 411 0 l 0 0 l 0 36 l 53 89 l 0 142 l 0 179 l 411 179 l 411 142 l 358 89 l 411 36 l 411 0 z "},"k":{"ha":740,"x_min":0,"x_max":740,"o":"m 740 846 l 0 846 l 0 882 l 53 935 l 0 988 l 0 1025 l 740 1025 l 740 988 l 688 935 l 740 882 l 740 846 m 654 210 l 478 210 l 219 467 l 219 210 l 94 210 l 94 814 l 219 814 l 219 590 l 428 814 l 597 814 l 333 529 l 654 210 m 740 0 l 0 0 l 0 36 l 53 89 l 0 142 l 0 179 l 740 179 l 740 142 l 688 89 l 740 36 l 740 0 z "},"l":{"ha":565,"x_min":0,"x_max":565,"o":"m 565 846 l 0 846 l 0 882 l 53 935 l 0 988 l 0 1025 l 565 1025 l 565 988 l 513 935 l 565 882 l 565 846 m 476 211 l 100 211 l 100 814 l 225 814 l 225 336 l 476 336 l 476 211 m 565 0 l 0 0 l 0 36 l 53 89 l 0 142 l 0 179 l 565 179 l 565 142 l 513 89 l 565 36 l 565 0 z "},"m":{"ha":796,"x_min":0,"x_max":796,"o":"m 796 846 l 0 846 l 0 882 l 53 935 l 0 988 l 0 1025 l 796 1025 l 796 988 l 743 935 l 796 882 l 796 846 m 701 210 l 576 210 l 576 632 l 399 388 l 221 632 l 221 210 l 96 210 l 96 814 l 243 814 l 399 600 l 554 814 l 701 814 l 701 210 m 796 0 l 0 0 l 0 36 l 53 89 l 0 142 l 0 179 l 796 179 l 796 142 l 743 89 l 796 36 l 796 0 z "},"n":{"ha":796,"x_min":0,"x_max":796,"o":"m 796 846 l 0 846 l 0 882 l 53 935 l 0 988 l 0 1025 l 796 1025 l 796 988 l 743 935 l 796 882 l 796 846 m 697 210 l 571 210 l 217 626 l 217 210 l 92 210 l 92 814 l 219 814 l 572 401 l 572 814 l 697 814 l 697 210 m 796 0 l 0 0 l 0 36 l 53 89 l 0 142 l 0 179 l 796 179 l 796 142 l 743 89 l 796 36 l 796 0 z "},"o":{"ha":819,"x_min":0,"x_max":819,"o":"m 819 846 l 0 846 l 0 882 l 53 935 l 0 988 l 0 1025 l 819 1025 l 819 988 l 767 935 l 819 882 l 819 846 m 637 733 q 684 690 637 733 q 731 514 731 647 q 637 295 731 381 q 408 210 543 210 q 181 295 275 210 q 88 514 88 381 q 181 733 88 647 q 408 818 274 818 q 637 733 543 818 m 549 384 q 577 408 549 384 q 606 514 606 432 q 549 644 606 596 q 408 693 493 693 q 269 645 325 693 q 213 514 213 597 q 269 384 213 432 q 408 336 325 336 q 549 384 493 336 m 819 0 l 0 0 l 0 36 l 53 89 l 0 142 l 0 179 l 819 179 l 819 142 l 767 89 l 819 36 l 819 0 z "},"p":{"ha":611,"x_min":0,"x_max":611,"o":"m 611 846 l 0 846 l 0 882 l 53 935 l 0 988 l 0 1025 l 611 1025 l 611 988 l 558 935 l 611 882 l 611 846 m 464 759 q 491 732 464 759 q 518 624 518 704 q 464 489 518 543 q 329 435 410 435 l 221 435 l 221 210 l 96 210 l 96 814 l 329 814 q 464 759 410 814 m 376 576 q 384 585 376 576 q 393 624 393 593 q 376 672 393 654 q 329 689 358 689 l 221 689 l 221 560 l 329 560 q 376 576 358 560 m 611 0 l 0 0 l 0 36 l 53 89 l 0 142 l 0 179 l 611 179 l 611 142 l 558 89 l 611 36 l 611 0 z "},"q":{"ha":814,"x_min":0,"x_max":814,"o":"m 814 846 l 0 846 l 0 882 l 53 935 l 0 988 l 0 1025 l 814 1025 l 814 988 l 761 935 l 814 882 l 814 846 m 814 0 l 0 0 l 0 36 l 53 89 l 0 142 l 0 179 l 410 179 q 356 228 379 199 q 166 324 240 243 q 92 521 92 406 q 182 733 92 650 q 404 817 272 817 q 626 734 536 817 q 717 521 717 651 q 670 360 717 432 q 542 253 624 289 q 647 236 592 236 q 710 243 678 236 l 724 179 l 814 179 l 814 142 l 761 89 l 814 36 l 814 0 m 592 521 q 538 645 592 599 q 404 692 485 692 q 271 646 325 692 q 217 521 217 600 q 270 396 217 442 q 404 350 324 350 q 538 396 485 350 q 592 521 592 442 z "},"r":{"ha":685,"x_min":0,"x_max":685,"o":"m 685 846 l 0 846 l 0 882 l 53 935 l 0 988 l 0 1025 l 685 1025 l 685 988 l 632 935 l 685 882 l 685 846 m 619 210 l 451 210 q 397 288 432 236 q 342 368 363 340 q 292 419 322 396 q 232 443 261 443 l 232 211 l 107 211 l 107 813 l 301 813 q 435 758 386 813 q 485 629 485 704 q 413 481 485 533 q 499 359 432 458 q 619 210 565 260 m 344 587 q 352 595 344 587 q 360 629 360 603 q 344 672 360 656 q 301 688 329 688 l 232 688 l 232 571 l 301 571 q 344 587 329 571 m 685 0 l 0 0 l 0 36 l 53 89 l 0 142 l 0 179 l 685 179 l 685 142 l 632 89 l 685 36 l 685 0 z "},"s":{"ha":536,"x_min":0,"x_max":536,"o":"m 536 846 l 0 846 l 0 882 l 53 935 l 0 988 l 0 1025 l 536 1025 l 536 988 l 483 935 l 536 882 l 536 846 m 472 379 q 410 253 472 297 q 264 208 349 208 q 88 267 176 208 l 100 417 q 265 335 179 335 q 292 337 276 335 q 328 348 308 339 q 347 372 347 357 q 329 409 347 390 q 295 438 311 428 q 240 471 279 449 q 167 517 194 497 q 115 574 140 536 q 89 654 89 611 q 147 771 89 725 q 293 817 204 817 q 442 776 369 817 l 429 632 q 296 692 367 692 q 215 656 215 692 q 221 636 215 646 q 241 616 226 626 q 267 598 256 606 q 301 577 278 590 q 338 557 325 564 q 472 379 468 478 m 536 0 l 0 0 l 0 36 l 53 89 l 0 142 l 0 179 l 536 179 l 536 142 l 483 89 l 536 36 l 536 0 z "},"t":{"ha":703,"x_min":0,"x_max":703,"o":"m 703 846 l 0 846 l 0 882 l 53 935 l 0 988 l 0 1025 l 703 1025 l 703 988 l 650 935 l 703 882 l 703 846 m 611 689 l 417 689 l 417 211 l 292 211 l 292 689 l 96 689 l 96 814 l 611 814 l 611 689 m 703 0 l 0 0 l 0 36 l 53 89 l 0 142 l 0 179 l 703 179 l 703 142 l 650 89 l 703 36 l 703 0 z "},"u":{"ha":754,"x_min":0,"x_max":754,"o":"m 754 846 l 0 846 l 0 882 l 53 935 l 0 988 l 0 1025 l 754 1025 l 754 988 l 701 935 l 754 882 l 754 846 m 656 446 q 572 270 656 333 q 375 207 489 207 q 178 270 261 207 q 94 446 94 333 l 94 814 l 219 814 l 219 446 q 266 361 219 392 q 375 331 313 331 q 484 361 438 331 q 531 446 531 392 l 531 814 l 656 814 l 656 446 m 754 0 l 0 0 l 0 36 l 53 89 l 0 142 l 0 179 l 754 179 l 754 142 l 701 89 l 754 36 l 754 0 z "},"v":{"ha":758,"x_min":0,"x_max":758,"o":"m 758 846 l 0 846 l 0 882 l 53 935 l 0 988 l 0 1025 l 758 1025 l 758 988 l 706 935 l 758 882 l 758 846 m 669 814 l 438 210 l 318 210 l 88 814 l 221 814 l 378 404 l 535 814 l 669 814 m 758 0 l 0 0 l 0 36 l 53 89 l 0 142 l 0 179 l 758 179 l 758 142 l 706 89 l 758 36 l 758 0 z "},"w":{"ha":1151,"x_min":0,"x_max":1151,"o":"m 1151 846 l 0 846 l 0 882 l 53 935 l 0 988 l 0 1025 l 1151 1025 l 1151 988 l 1099 935 l 1151 882 l 1151 846 m 1049 814 l 842 210 l 724 210 l 574 631 l 422 210 l 304 210 l 97 814 l 229 814 l 364 418 l 506 814 l 640 814 l 782 418 l 917 814 l 1049 814 m 1151 0 l 0 0 l 0 36 l 53 89 l 0 142 l 0 179 l 1151 179 l 1151 142 l 1099 89 l 1151 36 l 1151 0 z "},"x":{"ha":860,"x_min":0,"x_max":860,"o":"m 860 846 l 0 846 l 0 882 l 53 935 l 0 988 l 0 1025 l 860 1025 l 860 988 l 807 935 l 860 882 l 860 846 m 772 210 l 608 210 l 429 425 l 250 210 l 88 210 l 349 522 l 104 814 l 267 814 l 429 619 l 592 814 l 754 814 l 511 522 l 772 210 m 860 0 l 0 0 l 0 36 l 53 89 l 0 142 l 0 179 l 860 179 l 860 142 l 807 89 l 860 36 l 860 0 z "},"y":{"ha":786,"x_min":0,"x_max":786,"o":"m 786 846 l 0 846 l 0 882 l 53 935 l 0 988 l 0 1025 l 786 1025 l 786 988 l 733 935 l 786 882 l 786 846 m 686 814 l 454 519 l 454 211 l 329 211 l 329 519 l 99 814 l 257 814 l 392 643 l 526 814 l 686 814 m 786 0 l 0 0 l 0 36 l 53 89 l 0 142 l 0 179 l 786 179 l 786 142 l 733 89 l 786 36 l 786 0 z "},"z":{"ha":708,"x_min":0,"x_max":708,"o":"m 708 846 l 0 846 l 0 882 l 53 935 l 0 988 l 0 1025 l 708 1025 l 708 988 l 656 935 l 708 882 l 708 846 m 647 814 l 322 336 l 610 336 l 610 211 l 85 211 l 410 689 l 140 689 l 140 814 l 647 814 m 708 0 l 0 0 l 0 36 l 53 89 l 0 142 l 0 179 l 708 179 l 708 142 l 656 89 l 708 36 l 708 0 z "},"{":{"ha":364,"x_min":18,"x_max":349,"o":"m 349 -264 l 319 -264 q 133 -190 194 -264 q 72 -3 72 -117 l 72 307 q 53 326 72 326 l 18 326 l 18 493 l 53 493 q 72 513 72 493 l 72 822 q 133 1010 72 936 q 319 1083 194 1083 l 349 1083 l 349 917 l 319 917 q 258 894 278 917 q 239 808 239 871 l 239 499 q 213 410 239 451 q 239 321 239 368 l 239 11 q 258 -74 239 -51 q 319 -97 278 -97 l 349 -97 l 349 -264 z "},"|":{"ha":214,"x_min":24,"x_max":190,"o":"m 190 -278 l 24 -278 l 24 1111 l 190 1111 l 190 -278 z "},"}":{"ha":364,"x_min":18,"x_max":349,"o":"m 47 -264 l 18 -264 l 18 -97 l 47 -97 q 108 -74 89 -97 q 128 11 128 -51 l 128 321 q 154 410 128 368 q 128 499 128 451 l 128 808 q 108 894 128 871 q 47 917 89 917 l 18 917 l 18 1083 l 47 1083 q 233 1010 172 1083 q 294 822 294 936 l 294 513 q 314 493 294 493 l 349 493 l 349 326 l 314 326 q 294 307 294 326 l 294 -3 q 233 -190 294 -117 q 47 -264 172 -264 z "},"~":{"ha":963,"x_min":19,"x_max":944,"o":"m 944 644 q 810 526 892 568 q 639 483 729 483 q 474 531 579 483 q 324 579 368 579 q 157 492 217 579 l 19 585 q 153 705 72 663 q 324 747 233 747 q 447 723 388 747 q 553 674 506 699 q 639 650 601 650 q 806 739 744 650 l 944 644 z "}," ":{"ha":418,"x_min":0,"x_max":0,"o":""},"¡":{"ha":328,"x_min":44,"x_max":283,"o":"m 231 794 q 245 781 231 794 q 260 726 260 767 q 231 658 260 686 q 164 631 203 631 q 97 658 125 631 q 68 726 68 686 q 97 794 68 767 q 164 822 125 822 q 231 794 203 822 m 283 -69 q 248 -198 283 -143 q 164 -253 213 -253 q 80 -198 115 -253 q 44 -69 44 -143 q 85 271 44 25 q 135 593 125 517 l 193 593 q 230 354 206 499 q 269 106 254 210 q 283 -69 283 3 z "},"¢":{"ha":710,"x_min":44,"x_max":665,"o":"m 665 806 l 578 663 q 489 706 536 689 l 351 325 q 389 321 369 321 q 583 385 458 321 l 660 238 q 386 154 500 154 q 293 167 340 154 l 213 -57 l 101 -57 l 199 210 q 84 342 124 260 q 44 519 44 425 q 148 787 44 683 q 396 890 251 890 q 444 888 411 890 l 514 1079 l 625 1079 l 546 863 q 665 806 601 842 m 385 722 q 257 659 303 717 q 211 519 211 601 q 260 378 211 432 l 385 722 z "},"£":{"ha":807,"x_min":44,"x_max":763,"o":"m 763 835 q 622 876 711 876 q 364 540 472 876 l 481 540 l 481 436 l 335 436 q 271 165 324 396 l 288 165 q 434 151 336 165 q 583 138 532 138 q 713 160 657 138 l 713 -14 q 586 -28 661 -28 q 435 -15 536 -28 q 285 -1 335 -1 q 223 -5 257 -1 q 166 -12 189 -8 q 103 -22 143 -15 q 44 -32 63 -29 q 113 231 71 60 q 163 436 154 403 l 79 436 l 79 540 l 192 540 q 258 728 222 646 q 346 886 294 811 q 467 1002 397 961 q 622 1043 538 1043 l 651 1043 l 763 835 z "},"¤":{"ha":1056,"x_min":44,"x_max":1011,"o":"m 1011 990 l 922 846 q 715 885 803 885 q 470 817 568 885 q 332 643 372 750 l 797 643 l 732 539 l 308 539 q 308 519 308 532 q 307 500 307 506 q 308 490 307 497 q 308 479 308 483 l 696 479 l 632 375 l 329 375 q 460 201 365 268 q 701 133 556 133 q 907 172 794 133 l 907 -3 q 699 -35 790 -35 q 338 82 481 -35 q 156 375 194 199 l 44 375 l 44 479 l 142 479 q 140 499 140 486 q 142 539 140 525 l 44 539 l 44 643 l 158 643 q 346 935 199 818 q 715 1051 493 1051 q 1011 990 858 1051 z "},"¥":{"ha":1029,"x_min":44,"x_max":985,"o":"m 985 1022 l 629 569 l 874 569 l 874 465 l 597 465 l 597 353 l 874 353 l 874 249 l 597 249 l 597 -1 l 431 -1 l 431 249 l 154 249 l 154 353 l 431 353 l 431 465 l 154 465 l 154 569 l 400 569 l 44 1022 l 256 1022 l 514 693 l 772 1022 l 985 1022 z "},"§":{"ha":3014,"x_min":38,"x_max":2975,"o":"m 38 1042 l 215 1042 l 215 0 l 38 0 l 38 1042 m 2806 1042 l 2975 1042 l 2975 0 l 2806 0 l 2806 1042 m 1735 650 q 1791 753 1756 706 q 1874 834 1826 800 q 1980 887 1922 868 q 2100 906 2038 906 q 2220 887 2163 906 q 2326 834 2278 868 q 2409 753 2374 800 q 2465 650 2444 706 l 2636 650 q 2585 781 2619 719 q 2503 894 2551 843 q 2397 982 2456 944 q 2269 1042 2338 1019 l 1931 1042 q 1803 982 1863 1019 q 1697 894 1744 944 q 1615 781 1649 843 q 1564 650 1581 719 l 1735 650 m 2465 383 q 2409 281 2444 328 q 2326 199 2374 233 q 2220 147 2278 165 q 2100 128 2163 128 q 1980 147 2038 128 q 1874 199 1922 165 q 1791 281 1826 233 q 1735 383 1756 328 l 1564 383 q 1688 149 1597 250 q 1906 0 1779 49 l 2296 0 q 2513 149 2422 49 q 2636 383 2603 250 l 2465 383 m 1282 383 q 1225 281 1261 328 q 1141 199 1189 233 q 1035 147 1093 165 q 915 128 978 128 q 796 147 853 128 q 691 199 739 165 q 607 281 643 233 q 550 383 571 328 l 381 383 q 428 258 397 317 q 503 149 460 199 q 603 62 547 100 q 721 0 658 24 l 1111 0 q 1229 62 1174 24 q 1328 149 1285 100 q 1403 258 1372 199 q 1451 383 1435 317 l 1282 383 m 551 650 q 608 753 572 706 q 691 834 643 800 q 796 887 739 868 q 915 906 853 906 q 1035 887 978 906 q 1141 834 1093 868 q 1224 753 1189 800 q 1281 650 1260 706 l 1451 650 q 1401 781 1435 719 q 1319 894 1367 843 q 1212 982 1271 944 q 1086 1042 1153 1019 l 746 1042 q 620 982 679 1019 q 513 894 561 944 q 431 781 465 843 q 381 650 397 719 l 551 650 m 381 622 l 513 622 l 513 581 l 435 581 l 435 535 l 504 535 l 504 490 l 433 490 l 433 410 l 381 410 l 381 622 m 1397 622 l 1458 622 l 1557 481 l 1557 622 l 1610 622 l 1610 410 l 1561 410 l 1449 554 l 1449 410 l 1397 410 l 1397 622 m 2024 622 l 2183 622 l 2183 569 l 2139 569 l 2139 410 l 2068 410 l 2068 571 l 2024 571 l 2024 622 m 919 633 q 878 628 900 633 q 839 608 857 622 q 808 569 821 594 q 796 506 796 544 q 813 444 796 467 q 851 411 831 422 q 908 394 876 397 q 968 411 942 397 q 1010 446 992 422 q 1029 514 1029 469 q 1012 582 1029 558 q 974 617 994 606 q 919 633 949 631 m 910 447 q 879 457 893 450 q 859 476 868 464 q 850 510 850 488 q 856 544 850 531 q 872 567 863 558 q 894 578 882 575 q 915 581 906 581 q 944 572 931 579 q 965 551 956 565 q 975 514 975 538 q 965 476 975 489 q 942 456 954 463 q 910 447 926 449 m 2486 463 q 2512 453 2497 457 q 2544 449 2526 449 q 2569 453 2558 449 q 2579 469 2579 457 q 2563 489 2579 483 q 2528 501 2547 494 q 2494 519 2510 507 q 2479 561 2479 532 q 2488 592 2479 579 q 2509 612 2496 604 q 2539 622 2522 619 q 2571 625 2556 625 q 2625 617 2604 625 l 2621 574 q 2575 583 2601 583 q 2551 581 2564 583 q 2538 564 2538 578 q 2553 547 2538 551 q 2587 535 2568 542 q 2621 517 2606 529 q 2636 476 2636 506 q 2608 422 2636 436 q 2544 408 2581 408 q 2513 410 2529 408 q 2481 417 2496 411 l 2486 463 z "},"¨":{"ha":469,"x_min":58,"x_max":424,"o":"m 279 1206 l 424 1206 l 424 1060 l 279 1060 l 279 1206 m 58 1206 l 204 1206 l 204 1060 l 58 1060 l 58 1206 z "},"©":{"ha":1167,"x_min":44,"x_max":1122,"o":"m 1122 511 q 964 131 1122 289 q 583 -28 806 -28 q 203 131 361 -28 q 44 511 44 289 q 202 892 44 735 q 583 1050 360 1050 q 965 892 807 1050 q 1122 511 1122 735 m 1014 511 q 888 817 1014 690 q 583 943 761 943 q 279 817 406 943 q 153 511 153 690 q 279 207 153 333 q 583 81 406 81 q 888 207 761 81 q 1014 511 1014 333 m 833 221 q 590 163 688 163 q 326 267 422 163 q 229 511 229 371 q 327 759 229 653 q 597 865 425 865 q 833 810 706 865 l 833 690 q 604 758 703 758 q 407 685 476 758 q 338 513 338 613 q 403 342 338 414 q 590 271 469 271 q 833 339 683 271 l 833 221 z "},"ª":{"ha":463,"x_min":0,"x_max":463,"o":"m 463 846 l 0 846 l 0 882 l 53 935 l 0 988 l 0 1025 l 463 1025 l 463 988 l 410 935 l 463 882 l 463 846 m 463 0 l 0 0 l 0 36 l 53 89 l 0 142 l 0 179 l 463 179 l 463 142 l 410 89 l 463 36 l 463 0 m 335 435 l 294 528 l 168 528 l 129 435 l 29 435 l 192 814 l 272 814 l 438 435 l 335 435 m 232 675 l 208 619 l 256 619 l 232 675 m 26 415 l 440 415 l 440 314 l 26 314 l 26 415 z "},"«":{"ha":618,"x_min":44,"x_max":574,"o":"m 574 214 l 449 214 l 225 549 l 449 883 l 574 883 l 350 549 l 574 214 m 393 214 l 268 214 l 44 549 l 268 883 l 393 883 l 169 549 l 393 214 z "},"¬":{"ha":607,"x_min":44,"x_max":563,"o":"m 563 331 l 396 331 l 396 439 l 44 439 l 44 606 l 563 606 l 563 331 z "},"®":{"ha":500,"x_min":44,"x_max":456,"o":"m 396 982 q 426 952 396 982 q 456 836 456 922 q 396 690 456 750 q 250 631 336 631 q 104 690 164 631 q 44 836 44 750 q 104 982 44 922 q 250 1042 164 1042 q 396 982 336 1042 m 417 836 q 368 954 417 906 q 250 1003 319 1003 q 132 954 181 1003 q 83 836 83 906 q 132 719 83 768 q 250 671 181 671 q 368 719 319 671 q 417 836 417 768 m 361 721 l 307 721 q 276 766 296 735 q 241 810 256 797 q 207 824 226 824 l 200 824 l 200 721 l 160 721 l 160 964 l 235 964 q 287 944 268 964 q 306 894 306 924 q 274 835 306 854 q 310 783 282 825 q 361 721 338 742 m 257 872 q 261 876 257 872 q 265 893 265 881 q 257 915 265 906 q 235 925 249 925 l 200 925 l 200 864 l 235 864 q 257 872 249 864 z "},"¯":{"ha":411,"x_min":44,"x_max":367,"o":"m 367 865 l 44 865 l 44 968 l 367 968 l 367 865 z "},"°":{"ha":492,"x_min":44,"x_max":447,"o":"m 388 697 q 359 670 388 697 q 246 643 329 643 q 103 697 163 643 q 44 833 44 750 q 103 971 44 917 q 246 1025 161 1025 q 389 972 331 1025 q 447 833 447 918 q 388 697 447 750 m 324 906 q 309 920 324 906 q 246 933 293 933 q 167 906 199 933 q 136 833 136 879 q 167 763 136 789 q 246 736 199 736 q 324 763 293 736 q 356 833 356 789 q 324 906 356 879 z "},"±":{"ha":613,"x_min":44,"x_max":568,"o":"m 568 447 l 390 447 l 390 269 l 224 269 l 224 447 l 44 447 l 44 614 l 222 614 l 222 792 l 389 792 l 389 614 l 568 614 l 568 447 m 568 3 l 44 3 l 44 169 l 568 169 l 568 3 z "},"²":{"ha":568,"x_min":0,"x_max":568,"o":"m 568 846 l 0 846 l 0 882 l 53 935 l 0 988 l 0 1025 l 568 1025 l 568 988 l 515 935 l 568 882 l 568 846 m 503 211 l 61 211 q 256 456 203 379 q 336 636 336 572 q 321 681 336 663 q 272 699 306 699 q 140 607 197 699 l 113 779 q 269 833 194 833 q 410 778 351 833 q 469 638 469 724 q 343 346 469 518 l 503 346 l 503 211 m 568 0 l 0 0 l 0 36 l 53 89 l 0 142 l 0 179 l 568 179 l 568 142 l 515 89 l 568 36 l 568 0 z "},"³":{"ha":457,"x_min":0,"x_max":457,"o":"m 457 846 l 0 846 l 0 882 l 53 935 l 0 988 l 0 1025 l 457 1025 l 457 988 l 404 935 l 457 882 l 457 846 m 172 835 q 326 785 257 835 q 394 651 394 735 q 343 524 394 578 q 397 388 397 465 q 331 250 397 301 q 175 199 264 199 q 74 215 119 199 l 74 364 q 172 333 126 333 q 263 388 263 333 q 235 440 263 421 q 172 460 207 460 l 151 460 l 151 594 q 260 650 260 594 q 232 687 260 674 q 168 700 204 700 q 74 668 131 700 l 74 819 q 172 835 124 835 m 457 0 l 0 0 l 0 36 l 53 89 l 0 142 l 0 179 l 457 179 l 457 142 l 404 89 l 457 36 l 457 0 z "},"´":{"ha":561,"x_min":61,"x_max":514,"o":"m 61 1174 l 465 1331 l 514 1208 l 110 1051 l 61 1174 z "},"µ":{"ha":539,"x_min":0,"x_max":539,"o":"m 539 846 l 0 846 l 0 882 l 53 935 l 0 988 l 0 1025 l 539 1025 l 539 988 l 486 935 l 539 882 l 539 846 m 449 746 q 485 604 485 688 q 412 365 485 475 q 226 193 339 254 l 140 303 q 304 449 247 347 q 278 447 296 447 q 138 501 194 447 q 82 639 82 554 q 138 781 82 725 q 282 836 193 836 q 449 746 392 836 m 350 606 q 286 701 350 701 q 218 643 218 701 q 275 582 218 582 q 350 606 308 582 m 539 0 l 0 0 l 0 36 l 53 89 l 0 142 l 0 179 l 539 179 l 539 142 l 486 89 l 539 36 l 539 0 z "},"μ":{"ha":539,"x_min":0,"x_max":539,"o":"m 539 846 l 0 846 l 0 882 l 53 935 l 0 988 l 0 1025 l 539 1025 l 539 988 l 486 935 l 539 882 l 539 846 m 449 746 q 485 604 485 688 q 412 365 485 475 q 226 193 339 254 l 140 303 q 304 449 247 347 q 278 447 296 447 q 138 501 194 447 q 82 639 82 554 q 138 781 82 725 q 282 836 193 836 q 449 746 392 836 m 350 606 q 286 701 350 701 q 218 643 218 701 q 275 582 218 582 q 350 606 308 582 m 539 0 l 0 0 l 0 36 l 53 89 l 0 142 l 0 179 l 539 179 l 539 142 l 486 89 l 539 36 l 539 0 z "},"¶":{"ha":922,"x_min":44,"x_max":878,"o":"m 878 856 l 819 856 l 819 -219 l 653 -219 l 653 1022 l 878 1022 l 878 856 m 608 -222 l 442 -222 l 442 340 q 389 333 418 333 q 145 434 246 333 q 44 678 44 535 q 145 922 44 821 q 389 1022 246 1022 l 608 1022 l 608 -222 z "},"·":{"ha":285,"x_min":44,"x_max":240,"o":"m 211 641 q 226 627 211 641 q 240 572 240 613 q 212 503 240 532 q 143 474 183 474 q 74 502 103 474 q 44 571 44 531 q 73 640 44 611 q 142 669 101 669 q 211 641 182 669 z "},"¸":{"ha":456,"x_min":72,"x_max":421,"o":"m 72 -164 l 203 43 l 351 43 l 297 -44 q 387 -112 353 -65 q 421 -221 421 -158 q 361 -362 421 -310 q 217 -415 301 -415 q 97 -383 153 -415 l 133 -251 q 214 -275 169 -275 q 268 -261 246 -275 q 290 -224 290 -247 q 272 -180 290 -196 q 225 -164 253 -164 l 72 -164 z "},"¹":{"ha":292,"x_min":0,"x_max":292,"o":"m 292 846 l 0 846 l 0 882 l 53 935 l 0 988 l 0 1025 l 292 1025 l 292 988 l 239 935 l 292 882 l 292 846 m 214 210 l 78 210 l 78 824 l 214 824 l 214 210 m 292 0 l 0 0 l 0 36 l 53 89 l 0 142 l 0 179 l 292 179 l 292 142 l 239 89 l 292 36 l 292 0 z "},"º":{"ha":469,"x_min":0,"x_max":469,"o":"m 469 846 l 0 846 l 0 882 l 53 935 l 0 988 l 0 1025 l 469 1025 l 469 988 l 417 935 l 469 882 l 469 846 m 469 0 l 0 0 l 0 36 l 53 89 l 0 142 l 0 179 l 469 179 l 469 142 l 417 89 l 469 36 l 469 0 m 376 494 q 346 467 376 494 q 233 440 317 440 q 91 494 150 440 q 32 631 32 547 q 90 768 32 714 q 233 822 149 822 q 376 769 318 822 q 435 631 435 715 q 376 494 435 547 m 312 703 q 296 717 312 703 q 233 731 281 731 q 155 703 186 731 q 124 631 124 676 q 155 560 124 586 q 233 533 186 533 q 312 560 281 533 q 343 631 343 586 q 312 703 343 676 m 36 419 l 431 419 l 431 315 l 36 315 l 36 419 z "},"»":{"ha":618,"x_min":44,"x_max":574,"o":"m 574 549 l 350 214 l 225 214 l 449 549 l 225 883 l 350 883 l 574 549 m 393 549 l 169 214 l 44 214 l 268 549 l 44 883 l 169 883 l 393 549 z "},"¼":{"ha":1185,"x_min":44,"x_max":1140,"o":"m 169 257 l 44 257 l 44 1025 l 169 1025 l 169 257 m 1024 1026 l 218 0 l 67 0 l 874 1026 l 1024 1026 m 1140 235 l 1072 235 l 1072 0 l 947 0 l 947 235 l 626 235 l 626 343 l 994 785 l 1072 785 l 1072 361 l 1140 361 l 1140 235 m 947 361 l 947 533 l 803 361 l 947 361 z "},"½":{"ha":1378,"x_min":44,"x_max":1333,"o":"m 1333 0 l 828 0 q 906 94 888 71 q 978 184 925 117 q 1053 286 1032 251 q 1107 374 1075 321 q 1151 467 1139 426 q 1164 543 1164 508 q 1131 626 1164 599 q 1050 654 1099 654 q 951 626 1000 654 q 865 542 901 597 l 865 719 q 1050 779 951 779 q 1224 708 1158 779 q 1289 543 1289 638 q 1090 125 1289 378 l 1333 125 l 1333 0 m 169 257 l 44 257 l 44 1025 l 169 1025 l 169 257 m 1024 1026 l 218 0 l 67 0 l 874 1026 l 1024 1026 z "},"¾":{"ha":1339,"x_min":44,"x_max":1294,"o":"m 149 1025 q 338 967 253 1025 q 422 807 422 908 q 339 636 422 704 q 425 451 425 563 q 347 291 425 356 q 153 226 269 226 q 44 242 92 226 l 44 375 q 151 351 92 351 q 255 375 210 351 q 300 451 300 399 q 254 543 300 510 q 150 576 208 576 l 150 701 q 253 728 210 701 q 296 810 296 754 q 248 878 296 856 q 147 900 200 900 q 44 876 86 900 l 44 1010 q 149 1025 97 1025 m 1178 1026 l 372 0 l 221 0 l 1028 1026 l 1178 1026 m 1294 235 l 1226 235 l 1226 0 l 1101 0 l 1101 235 l 781 235 l 781 343 l 1149 785 l 1226 785 l 1226 361 l 1294 361 l 1294 235 m 1101 361 l 1101 533 l 957 361 l 1101 361 z "},"¿":{"ha":442,"x_min":44,"x_max":397,"o":"m 359 767 q 373 753 359 767 q 388 699 388 739 q 359 631 388 658 q 292 603 331 603 q 224 631 253 603 q 196 699 196 658 q 224 767 196 739 q 292 794 253 794 q 359 767 331 794 m 361 -100 l 282 -268 q 113 -172 182 -254 q 44 14 44 -89 q 86 160 44 94 q 128 223 96 175 q 179 299 161 271 q 214 363 197 326 q 231 418 231 399 q 210 482 231 450 l 350 574 q 397 418 397 501 q 354 271 397 339 q 313 209 343 254 q 263 135 282 164 q 228 70 244 106 q 211 14 211 35 q 247 -71 211 -36 q 326 -106 282 -106 q 361 -100 346 -106 z "},"À":{"ha":1110,"x_min":44,"x_max":1065,"o":"m 1065 0 l 885 0 l 764 282 l 346 282 l 225 0 l 44 0 l 481 1024 l 629 1024 l 1065 0 m 693 450 l 554 774 l 417 450 l 693 450 m 376 1328 l 781 1169 l 733 1047 l 329 1206 l 376 1328 z "},"Á":{"ha":1110,"x_min":44,"x_max":1065,"o":"m 1065 0 l 885 0 l 764 282 l 346 282 l 225 0 l 44 0 l 481 1024 l 629 1024 l 1065 0 m 693 450 l 554 774 l 417 450 l 693 450 m 328 1174 l 732 1331 l 781 1208 l 376 1051 l 328 1174 z "},"Â":{"ha":1110,"x_min":44,"x_max":1065,"o":"m 1065 0 l 885 0 l 764 282 l 346 282 l 225 0 l 44 0 l 481 1024 l 629 1024 l 1065 0 m 693 450 l 554 774 l 417 450 l 693 450 m 322 1161 l 556 1286 l 788 1161 l 725 1047 l 556 1139 l 382 1047 l 322 1161 z "},"Ã":{"ha":1110,"x_min":44,"x_max":1065,"o":"m 1065 0 l 885 0 l 764 282 l 346 282 l 225 0 l 44 0 l 481 1024 l 629 1024 l 1065 0 m 693 450 l 554 774 l 417 450 l 693 450 m 319 1058 l 319 1160 q 349 1245 319 1210 q 428 1281 379 1281 q 469 1272 444 1281 l 658 1193 l 658 1268 l 789 1268 l 789 1171 q 760 1085 789 1121 q 682 1050 731 1050 q 639 1058 660 1050 l 451 1138 l 451 1058 l 319 1058 z "},"Ä":{"ha":1110,"x_min":44,"x_max":1065,"o":"m 1065 0 l 885 0 l 764 282 l 346 282 l 225 0 l 44 0 l 481 1024 l 629 1024 l 1065 0 m 693 450 l 554 774 l 417 450 l 693 450 m 593 1206 l 738 1206 l 738 1060 l 593 1060 l 593 1206 m 372 1206 l 518 1206 l 518 1060 l 372 1060 l 372 1206 z "},"Å":{"ha":1110,"x_min":44,"x_max":1065,"o":"m 1065 0 l 885 0 l 764 282 l 346 282 l 225 0 l 44 0 l 481 1024 l 629 1024 l 1065 0 m 693 450 l 554 774 l 417 450 l 693 450 m 554 1001 q 435 1047 485 1001 q 385 1163 385 1092 q 434 1278 385 1233 q 554 1324 483 1324 q 676 1278 626 1324 q 725 1163 725 1233 q 675 1047 725 1092 q 554 1001 625 1001 m 554 1233 q 498 1214 521 1233 q 475 1163 475 1194 q 498 1112 475 1131 q 554 1093 521 1093 q 612 1112 589 1093 q 635 1163 635 1131 q 612 1214 635 1194 q 554 1233 589 1233 z "},"Æ":{"ha":1403,"x_min":44,"x_max":1358,"o":"m 1358 0 l 758 0 l 758 428 l 500 428 l 240 0 l 44 0 l 665 1022 l 1338 1022 l 1338 856 l 925 856 l 925 594 l 1321 594 l 1321 428 l 925 428 l 925 167 l 1358 167 l 1358 0 m 758 594 l 758 854 l 601 594 l 758 594 z "},"Ç":{"ha":1022,"x_min":44,"x_max":978,"o":"m 978 57 q 603 -35 761 -35 q 361 11 469 -35 q 185 134 253 57 q 81 306 118 211 q 44 504 44 401 q 82 706 44 608 q 190 881 119 803 q 372 1005 260 958 q 621 1051 483 1051 q 978 965 781 1051 l 978 781 q 619 885 781 885 q 318 772 424 885 q 213 503 213 658 q 315 242 213 351 q 606 133 417 133 q 978 239 747 133 l 978 57 m 371 -193 l 501 14 l 650 14 l 596 -74 q 685 -141 651 -94 q 719 -250 719 -187 q 660 -392 719 -339 q 515 -444 600 -444 q 396 -412 451 -444 l 432 -281 q 513 -304 467 -304 q 567 -290 544 -304 q 589 -253 589 -276 q 570 -209 589 -225 q 524 -193 551 -193 l 371 -193 z "},"È":{"ha":679,"x_min":44,"x_max":635,"o":"m 635 0 l 44 0 l 44 1024 l 614 1024 l 614 857 l 211 857 l 211 596 l 597 596 l 597 429 l 211 429 l 211 168 l 635 168 l 635 0 m 161 1328 l 565 1169 l 518 1047 l 114 1206 l 161 1328 z "},"É":{"ha":679,"x_min":44,"x_max":635,"o":"m 635 0 l 44 0 l 44 1024 l 614 1024 l 614 857 l 211 857 l 211 596 l 597 596 l 597 429 l 211 429 l 211 168 l 635 168 l 635 0 m 113 1174 l 517 1331 l 565 1208 l 161 1051 l 113 1174 z "},"Ê":{"ha":679,"x_min":44,"x_max":635,"o":"m 635 0 l 44 0 l 44 1024 l 614 1024 l 614 857 l 211 857 l 211 596 l 597 596 l 597 429 l 211 429 l 211 168 l 635 168 l 635 0 m 107 1161 l 340 1286 l 572 1161 l 510 1047 l 340 1139 l 167 1047 l 107 1161 z "},"Ë":{"ha":679,"x_min":44,"x_max":635,"o":"m 635 0 l 44 0 l 44 1024 l 614 1024 l 614 857 l 211 857 l 211 596 l 597 596 l 597 429 l 211 429 l 211 168 l 635 168 l 635 0 m 378 1206 l 522 1206 l 522 1060 l 378 1060 l 378 1206 m 157 1206 l 303 1206 l 303 1060 l 157 1060 l 157 1206 z "},"Ì":{"ha":256,"x_min":-97,"x_max":354,"o":"m 211 0 l 44 0 l 44 1025 l 211 1025 l 211 0 m -50 1328 l 354 1169 l 307 1047 l -97 1206 l -50 1328 z "},"Í":{"ha":256,"x_min":-99,"x_max":354,"o":"m 211 0 l 44 0 l 44 1025 l 211 1025 l 211 0 m -99 1174 l 306 1331 l 354 1208 l -50 1051 l -99 1174 z "},"Î":{"ha":256,"x_min":-104,"x_max":361,"o":"m 211 0 l 44 0 l 44 1025 l 211 1025 l 211 0 m -104 1161 l 129 1286 l 361 1161 l 299 1047 l 129 1139 l -44 1047 l -104 1161 z "},"Ï":{"ha":256,"x_min":-54,"x_max":311,"o":"m 211 0 l 44 0 l 44 1025 l 211 1025 l 211 0 m 167 1206 l 311 1206 l 311 1060 l 167 1060 l 167 1206 m -54 1206 l 92 1206 l 92 1060 l -54 1060 l -54 1206 z "},"Ð":{"ha":1158,"x_min":44,"x_max":1114,"o":"m 604 1024 q 968 880 822 1024 q 1114 517 1114 736 q 1081 328 1114 419 q 985 163 1047 236 q 824 44 924 89 q 604 0 725 0 l 161 0 l 161 460 l 44 460 l 44 564 l 161 564 l 161 1024 l 604 1024 m 947 517 q 851 758 947 660 q 604 857 754 857 l 328 857 l 328 564 l 474 564 l 474 460 l 328 460 l 328 167 l 604 167 q 857 271 767 167 q 947 517 947 375 z "},"Ñ":{"ha":1072,"x_min":44,"x_max":1028,"o":"m 1028 0 l 867 0 l 211 767 l 211 0 l 44 0 l 44 1024 l 211 1024 l 861 263 l 861 1025 l 1028 1025 l 1028 0 m 301 1058 l 301 1160 q 331 1245 301 1210 q 410 1281 361 1281 q 451 1272 426 1281 l 640 1193 l 640 1268 l 771 1268 l 771 1171 q 742 1085 771 1121 q 664 1050 713 1050 q 621 1058 642 1050 l 433 1138 l 433 1058 l 301 1058 z "},"Ò":{"ha":1194,"x_min":44,"x_max":1150,"o":"m 990 889 q 1070 816 990 889 q 1150 513 1150 743 q 990 136 1150 282 q 597 -10 831 -10 q 205 136 365 -10 q 44 513 44 282 q 204 888 44 742 q 597 1035 364 1035 q 990 889 829 1035 m 983 513 q 873 771 983 674 q 597 868 763 868 q 322 771 433 868 q 211 513 211 674 q 322 254 211 351 q 597 157 433 157 q 872 253 761 157 q 983 513 983 350 m 418 1328 l 822 1169 l 775 1047 l 371 1206 l 418 1328 z "},"Ó":{"ha":1194,"x_min":44,"x_max":1150,"o":"m 990 889 q 1070 816 990 889 q 1150 513 1150 743 q 990 136 1150 282 q 597 -10 831 -10 q 205 136 365 -10 q 44 513 44 282 q 204 888 44 742 q 597 1035 364 1035 q 990 889 829 1035 m 983 513 q 873 771 983 674 q 597 868 763 868 q 322 771 433 868 q 211 513 211 674 q 322 254 211 351 q 597 157 433 157 q 872 253 761 157 q 983 513 983 350 m 371 1174 l 775 1331 l 824 1208 l 419 1051 l 371 1174 z "},"Ô":{"ha":1194,"x_min":44,"x_max":1150,"o":"m 990 889 q 1070 816 990 889 q 1150 513 1150 743 q 990 136 1150 282 q 597 -10 831 -10 q 205 136 365 -10 q 44 513 44 282 q 204 888 44 742 q 597 1035 364 1035 q 990 889 829 1035 m 983 513 q 873 771 983 674 q 597 868 763 868 q 322 771 433 868 q 211 513 211 674 q 322 254 211 351 q 597 157 433 157 q 872 253 761 157 q 983 513 983 350 m 364 1161 l 597 1286 l 829 1161 l 767 1047 l 597 1139 l 424 1047 l 364 1161 z "},"Õ":{"ha":1194,"x_min":44,"x_max":1150,"o":"m 990 889 q 1070 816 990 889 q 1150 513 1150 743 q 990 136 1150 282 q 597 -10 831 -10 q 205 136 365 -10 q 44 513 44 282 q 204 888 44 742 q 597 1035 364 1035 q 990 889 829 1035 m 983 513 q 873 771 983 674 q 597 868 763 868 q 322 771 433 868 q 211 513 211 674 q 322 254 211 351 q 597 157 433 157 q 872 253 761 157 q 983 513 983 350 m 363 1058 l 363 1160 q 392 1245 363 1210 q 471 1281 422 1281 q 513 1272 488 1281 l 701 1193 l 701 1268 l 832 1268 l 832 1171 q 803 1085 832 1121 q 725 1050 774 1050 q 682 1058 703 1050 l 494 1138 l 494 1058 l 363 1058 z "},"Ö":{"ha":1194,"x_min":44,"x_max":1150,"o":"m 990 889 q 1070 816 990 889 q 1150 513 1150 743 q 990 136 1150 282 q 597 -10 831 -10 q 205 136 365 -10 q 44 513 44 282 q 204 888 44 742 q 597 1035 364 1035 q 990 889 829 1035 m 983 513 q 873 771 983 674 q 597 868 763 868 q 322 771 433 868 q 211 513 211 674 q 322 254 211 351 q 597 157 433 157 q 872 253 761 157 q 983 513 983 350 m 635 1206 l 779 1206 l 779 1060 l 635 1060 l 635 1206 m 414 1206 l 560 1206 l 560 1060 l 414 1060 l 414 1206 z "},"×":{"ha":576,"x_min":44,"x_max":532,"o":"m 532 404 l 414 288 l 288 413 l 163 288 l 44 404 l 171 531 l 44 657 l 163 774 l 288 649 l 414 774 l 532 657 l 406 531 l 532 404 z "},"Ø":{"ha":1194,"x_min":44,"x_max":1150,"o":"m 1150 513 q 990 136 1150 282 q 597 -10 831 -10 q 290 72 426 -10 l 213 -29 l 151 -29 l 250 99 q 99 276 154 169 q 44 513 44 382 q 204 888 44 742 q 597 1035 364 1035 q 904 953 768 1035 l 982 1053 l 1043 1053 l 946 925 q 1096 748 1042 854 q 1150 513 1150 642 m 983 513 q 844 793 983 693 l 392 206 q 597 157 482 157 q 872 253 761 157 q 983 513 983 350 m 803 819 q 597 868 708 868 q 322 771 433 868 q 211 513 211 674 q 351 231 211 331 l 803 819 z "},"Ù":{"ha":996,"x_min":44,"x_max":951,"o":"m 951 363 q 913 194 951 269 q 808 74 874 119 q 663 3 743 28 q 497 -21 583 -21 q 278 22 379 -21 q 111 153 178 64 q 44 363 44 242 l 44 1019 l 211 1019 l 211 363 q 296 201 211 256 q 497 146 381 146 q 700 202 615 146 q 785 363 785 258 l 785 1019 l 951 1019 l 951 363 m 319 1328 l 724 1169 l 676 1047 l 272 1206 l 319 1328 z "},"Ú":{"ha":996,"x_min":44,"x_max":951,"o":"m 951 363 q 913 194 951 269 q 808 74 874 119 q 663 3 743 28 q 497 -21 583 -21 q 278 22 379 -21 q 111 153 178 64 q 44 363 44 242 l 44 1019 l 211 1019 l 211 363 q 296 201 211 256 q 497 146 381 146 q 700 202 615 146 q 785 363 785 258 l 785 1019 l 951 1019 l 951 363 m 271 1174 l 675 1331 l 724 1208 l 319 1051 l 271 1174 z "},"Û":{"ha":996,"x_min":44,"x_max":951,"o":"m 951 363 q 913 194 951 269 q 808 74 874 119 q 663 3 743 28 q 497 -21 583 -21 q 278 22 379 -21 q 111 153 178 64 q 44 363 44 242 l 44 1019 l 211 1019 l 211 363 q 296 201 211 256 q 497 146 381 146 q 700 202 615 146 q 785 363 785 258 l 785 1019 l 951 1019 l 951 363 m 265 1161 l 499 1286 l 731 1161 l 668 1047 l 499 1139 l 325 1047 l 265 1161 z "},"Ü":{"ha":996,"x_min":44,"x_max":951,"o":"m 951 363 q 913 194 951 269 q 808 74 874 119 q 663 3 743 28 q 497 -21 583 -21 q 278 22 379 -21 q 111 153 178 64 q 44 363 44 242 l 44 1019 l 211 1019 l 211 363 q 296 201 211 256 q 497 146 381 146 q 700 202 615 146 q 785 363 785 258 l 785 1019 l 951 1019 l 951 363 m 536 1206 l 681 1206 l 681 1060 l 536 1060 l 536 1206 m 315 1206 l 461 1206 l 461 1060 l 315 1060 l 315 1206 z "},"Ý":{"ha":1031,"x_min":44,"x_max":986,"o":"m 986 1025 l 599 531 l 599 0 l 432 0 l 432 531 l 44 1025 l 256 1025 l 515 694 l 774 1025 l 986 1025 m 289 1174 l 693 1331 l 742 1208 l 338 1051 l 289 1174 z "},"Þ":{"ha":749,"x_min":44,"x_max":704,"o":"m 704 469 q 620 258 704 342 q 410 174 536 174 l 211 174 l 211 -1 l 44 -1 l 44 939 l 211 939 l 211 764 l 410 764 q 620 680 536 764 q 704 469 704 596 m 538 469 q 503 562 538 526 q 410 597 468 597 l 211 597 l 211 342 l 410 342 q 503 376 468 342 q 538 469 538 411 z "},"ß":{"ha":550,"x_min":0,"x_max":550,"o":"m 550 846 l 0 846 l 0 882 l 53 935 l 0 988 l 0 1025 l 550 1025 l 550 988 l 497 935 l 550 882 l 550 846 m 514 339 q 458 234 514 272 q 333 196 403 196 q 210 231 274 196 l 268 342 q 338 321 306 321 q 388 342 388 321 q 358 374 388 357 q 293 408 328 392 q 228 463 258 425 q 199 553 199 501 q 211 608 199 583 q 234 641 224 632 q 269 668 244 650 l 282 678 q 277 681 282 679 q 263 685 272 683 q 246 688 254 688 q 198 672 218 688 q 178 631 178 657 l 178 210 l 53 210 l 53 631 q 111 764 53 717 q 247 811 169 811 q 361 775 314 811 q 408 675 408 739 q 388 613 408 639 q 345 571 367 586 q 324 546 324 556 q 382 503 325 533 q 479 435 444 472 q 514 339 514 397 m 550 0 l 0 0 l 0 36 l 53 89 l 0 142 l 0 179 l 550 179 l 550 142 l 497 89 l 550 36 l 550 0 z "},"à":{"ha":750,"x_min":0,"x_max":750,"o":"m 750 846 l 0 846 l 0 882 l 53 935 l 0 988 l 0 1025 l 750 1025 l 750 988 l 697 935 l 750 882 l 750 846 m 693 210 l 557 210 l 492 364 l 263 364 l 197 210 l 61 210 l 319 814 l 436 814 l 693 210 m 750 0 l 0 0 l 0 36 l 53 89 l 0 142 l 0 179 l 750 179 l 750 142 l 697 89 l 750 36 l 750 0 m 439 489 l 378 632 l 317 489 l 439 489 m 196 1328 l 600 1169 l 553 1047 l 149 1206 l 196 1328 z "},"á":{"ha":750,"x_min":0,"x_max":750,"o":"m 750 846 l 0 846 l 0 882 l 53 935 l 0 988 l 0 1025 l 750 1025 l 750 988 l 697 935 l 750 882 l 750 846 m 693 210 l 557 210 l 492 364 l 263 364 l 197 210 l 61 210 l 319 814 l 436 814 l 693 210 m 750 0 l 0 0 l 0 36 l 53 89 l 0 142 l 0 179 l 750 179 l 750 142 l 697 89 l 750 36 l 750 0 m 439 489 l 378 632 l 317 489 l 439 489 m 149 1174 l 553 1331 l 601 1208 l 197 1051 l 149 1174 z "},"â":{"ha":750,"x_min":0,"x_max":750,"o":"m 750 846 l 0 846 l 0 882 l 53 935 l 0 988 l 0 1025 l 750 1025 l 750 988 l 697 935 l 750 882 l 750 846 m 693 210 l 557 210 l 492 364 l 263 364 l 197 210 l 61 210 l 319 814 l 436 814 l 693 210 m 750 0 l 0 0 l 0 36 l 53 89 l 0 142 l 0 179 l 750 179 l 750 142 l 697 89 l 750 36 l 750 0 m 439 489 l 378 632 l 317 489 l 439 489 m 142 1161 l 375 1286 l 607 1161 l 544 1047 l 375 1139 l 201 1047 l 142 1161 z "},"ã":{"ha":750,"x_min":0,"x_max":750,"o":"m 750 846 l 0 846 l 0 882 l 53 935 l 0 988 l 0 1025 l 750 1025 l 750 988 l 697 935 l 750 882 l 750 846 m 693 210 l 557 210 l 492 364 l 263 364 l 197 210 l 61 210 l 319 814 l 436 814 l 693 210 m 750 0 l 0 0 l 0 36 l 53 89 l 0 142 l 0 179 l 750 179 l 750 142 l 697 89 l 750 36 l 750 0 m 439 489 l 378 632 l 317 489 l 439 489 m 140 1058 l 140 1160 q 170 1245 140 1210 q 249 1281 200 1281 q 290 1272 265 1281 l 479 1193 l 479 1268 l 610 1268 l 610 1171 q 581 1085 610 1121 q 503 1050 551 1050 q 460 1058 481 1050 l 272 1138 l 272 1058 l 140 1058 z "},"ä":{"ha":750,"x_min":0,"x_max":750,"o":"m 750 846 l 0 846 l 0 882 l 53 935 l 0 988 l 0 1025 l 750 1025 l 750 988 l 697 935 l 750 882 l 750 846 m 693 210 l 557 210 l 492 364 l 263 364 l 197 210 l 61 210 l 319 814 l 436 814 l 693 210 m 750 0 l 0 0 l 0 36 l 53 89 l 0 142 l 0 179 l 750 179 l 750 142 l 697 89 l 750 36 l 750 0 m 439 489 l 378 632 l 317 489 l 439 489 m 413 1206 l 557 1206 l 557 1060 l 413 1060 l 413 1206 m 192 1206 l 338 1206 l 338 1060 l 192 1060 l 192 1206 z "},"å":{"ha":750,"x_min":0,"x_max":750,"o":"m 750 846 l 0 846 l 0 882 l 53 935 l 0 988 l 0 1025 l 750 1025 l 750 988 l 697 935 l 750 882 l 750 846 m 693 210 l 557 210 l 492 364 l 263 364 l 197 210 l 61 210 l 319 814 l 436 814 l 693 210 m 750 0 l 0 0 l 0 36 l 53 89 l 0 142 l 0 179 l 750 179 l 750 142 l 697 89 l 750 36 l 750 0 m 439 489 l 378 632 l 317 489 l 439 489 m 374 1001 q 254 1047 304 1001 q 204 1163 204 1092 q 253 1278 204 1233 q 374 1324 303 1324 q 495 1278 446 1324 q 544 1163 544 1233 q 494 1047 544 1092 q 374 1001 444 1001 m 374 1233 q 317 1214 340 1233 q 294 1163 294 1194 q 317 1112 294 1131 q 374 1093 340 1093 q 431 1112 408 1093 q 454 1163 454 1131 q 431 1214 454 1194 q 374 1233 408 1233 z "},"æ":{"ha":886,"x_min":0,"x_max":886,"o":"m 886 846 l 0 846 l 0 882 l 53 935 l 0 988 l 0 1025 l 886 1025 l 886 988 l 833 935 l 886 882 l 886 846 m 797 211 l 435 211 l 435 364 l 263 364 l 197 210 l 61 210 l 319 814 l 785 814 l 785 689 l 561 689 l 561 575 l 775 575 l 775 450 l 561 450 l 561 336 l 797 336 l 797 211 m 435 489 l 435 689 l 400 689 l 315 489 l 435 489 m 886 0 l 0 0 l 0 36 l 53 89 l 0 142 l 0 179 l 886 179 l 886 142 l 833 89 l 886 36 l 886 0 z "},"ç":{"ha":694,"x_min":0,"x_max":694,"o":"m 249 0 l 0 0 l 0 36 l 53 89 l 0 142 l 0 179 l 249 179 l 249 0 m 532 0 l 532 179 l 694 179 l 694 142 l 642 89 l 694 36 l 694 0 l 532 0 m 610 246 q 425 203 510 203 q 198 287 290 203 q 106 504 106 371 q 199 729 106 642 q 432 817 292 817 q 610 778 506 817 l 610 640 q 432 692 510 692 q 289 641 346 692 q 232 508 232 590 q 286 376 232 425 q 424 328 340 328 q 610 382 496 328 l 610 246 m 694 846 l 0 846 l 0 882 l 53 935 l 0 988 l 0 1025 l 694 1025 l 694 988 l 642 935 l 694 882 l 694 846 m 269 96 l 360 239 l 463 239 l 425 179 q 488 133 464 165 q 511 57 511 100 q 469 -41 511 -4 q 369 -78 428 -78 q 288 -56 326 -78 l 313 36 q 368 19 338 19 q 406 29 390 19 q 421 56 421 39 q 408 85 421 74 q 375 96 394 96 l 269 96 z "},"è":{"ha":546,"x_min":0,"x_max":546,"o":"m 546 846 l 0 846 l 0 882 l 53 935 l 0 988 l 0 1025 l 546 1025 l 546 988 l 493 935 l 546 882 l 546 846 m 457 211 l 96 211 l 96 814 l 444 814 l 444 689 l 221 689 l 221 575 l 435 575 l 435 450 l 221 450 l 221 336 l 457 336 l 457 211 m 546 0 l 0 0 l 0 36 l 53 89 l 0 142 l 0 179 l 546 179 l 546 142 l 493 89 l 546 36 l 546 0 m 94 1328 l 499 1169 l 451 1047 l 47 1206 l 94 1328 z "},"é":{"ha":546,"x_min":0,"x_max":546,"o":"m 546 846 l 0 846 l 0 882 l 53 935 l 0 988 l 0 1025 l 546 1025 l 546 988 l 493 935 l 546 882 l 546 846 m 457 211 l 96 211 l 96 814 l 444 814 l 444 689 l 221 689 l 221 575 l 435 575 l 435 450 l 221 450 l 221 336 l 457 336 l 457 211 m 546 0 l 0 0 l 0 36 l 53 89 l 0 142 l 0 179 l 546 179 l 546 142 l 493 89 l 546 36 l 546 0 m 47 1174 l 451 1331 l 500 1208 l 96 1051 l 47 1174 z "},"ê":{"ha":546,"x_min":0,"x_max":546,"o":"m 546 846 l 0 846 l 0 882 l 53 935 l 0 988 l 0 1025 l 546 1025 l 546 988 l 493 935 l 546 882 l 546 846 m 457 211 l 96 211 l 96 814 l 444 814 l 444 689 l 221 689 l 221 575 l 435 575 l 435 450 l 221 450 l 221 336 l 457 336 l 457 211 m 546 0 l 0 0 l 0 36 l 53 89 l 0 142 l 0 179 l 546 179 l 546 142 l 493 89 l 546 36 l 546 0 m 40 1161 l 274 1286 l 506 1161 l 443 1047 l 274 1139 l 100 1047 l 40 1161 z "},"ë":{"ha":546,"x_min":0,"x_max":546,"o":"m 546 846 l 0 846 l 0 882 l 53 935 l 0 988 l 0 1025 l 546 1025 l 546 988 l 493 935 l 546 882 l 546 846 m 457 211 l 96 211 l 96 814 l 444 814 l 444 689 l 221 689 l 221 575 l 435 575 l 435 450 l 221 450 l 221 336 l 457 336 l 457 211 m 546 0 l 0 0 l 0 36 l 53 89 l 0 142 l 0 179 l 546 179 l 546 142 l 493 89 l 546 36 l 546 0 m 311 1206 l 456 1206 l 456 1060 l 311 1060 l 311 1206 m 90 1206 l 236 1206 l 236 1060 l 90 1060 l 90 1206 z "},"ì":{"ha":310,"x_min":-71,"x_max":381,"o":"m 310 846 l 0 846 l 0 882 l 53 935 l 0 988 l 0 1025 l 310 1025 l 310 988 l 258 935 l 310 882 l 310 846 m 217 210 l 92 210 l 92 814 l 217 814 l 217 210 m 310 0 l 0 0 l 0 36 l 53 89 l 0 142 l 0 179 l 310 179 l 310 142 l 258 89 l 310 36 l 310 0 m -24 1328 l 381 1169 l 333 1047 l -71 1206 l -24 1328 z "},"í":{"ha":310,"x_min":-71,"x_max":382,"o":"m 310 846 l 0 846 l 0 882 l 53 935 l 0 988 l 0 1025 l 310 1025 l 310 988 l 258 935 l 310 882 l 310 846 m 217 210 l 92 210 l 92 814 l 217 814 l 217 210 m 310 0 l 0 0 l 0 36 l 53 89 l 0 142 l 0 179 l 310 179 l 310 142 l 258 89 l 310 36 l 310 0 m -71 1174 l 333 1331 l 382 1208 l -22 1051 l -71 1174 z "},"î":{"ha":310,"x_min":-78,"x_max":388,"o":"m 310 846 l 0 846 l 0 882 l 53 935 l 0 988 l 0 1025 l 310 1025 l 310 988 l 258 935 l 310 882 l 310 846 m 217 210 l 92 210 l 92 814 l 217 814 l 217 210 m 310 0 l 0 0 l 0 36 l 53 89 l 0 142 l 0 179 l 310 179 l 310 142 l 258 89 l 310 36 l 310 0 m -78 1161 l 156 1286 l 388 1161 l 325 1047 l 156 1139 l -18 1047 l -78 1161 z "},"ï":{"ha":310,"x_min":-28,"x_max":338,"o":"m 310 846 l 0 846 l 0 882 l 53 935 l 0 988 l 0 1025 l 310 1025 l 310 988 l 258 935 l 310 882 l 310 846 m 217 210 l 92 210 l 92 814 l 217 814 l 217 210 m 310 0 l 0 0 l 0 36 l 53 89 l 0 142 l 0 179 l 310 179 l 310 142 l 258 89 l 310 36 l 310 0 m 193 1206 l 338 1206 l 338 1060 l 193 1060 l 193 1206 m -28 1206 l 118 1206 l 118 1060 l -28 1060 l -28 1206 z "},"ð":{"ha":754,"x_min":0,"x_max":754,"o":"m 754 846 l 0 846 l 0 882 l 53 935 l 0 988 l 0 1025 l 754 1025 l 754 988 l 701 935 l 754 882 l 754 846 m 665 515 q 580 301 665 392 q 365 211 494 211 l 101 211 l 101 486 l 56 486 l 56 538 l 101 538 l 101 814 l 365 814 q 585 724 506 814 q 665 515 665 635 m 365 336 q 490 387 440 336 q 540 514 540 438 q 496 637 540 585 q 365 689 451 689 l 226 689 l 226 538 l 288 538 l 288 486 l 226 486 l 226 336 l 365 336 m 754 0 l 0 0 l 0 36 l 53 89 l 0 142 l 0 179 l 754 179 l 754 142 l 701 89 l 754 36 l 754 0 z "},"ñ":{"ha":796,"x_min":0,"x_max":796,"o":"m 796 846 l 0 846 l 0 882 l 53 935 l 0 988 l 0 1025 l 796 1025 l 796 988 l 743 935 l 796 882 l 796 846 m 697 210 l 571 210 l 217 626 l 217 210 l 92 210 l 92 814 l 219 814 l 572 401 l 572 814 l 697 814 l 697 210 m 796 0 l 0 0 l 0 36 l 53 89 l 0 142 l 0 179 l 796 179 l 796 142 l 743 89 l 796 36 l 796 0 m 163 1058 l 163 1160 q 192 1245 163 1210 q 271 1281 222 1281 q 313 1272 288 1281 l 501 1193 l 501 1268 l 632 1268 l 632 1171 q 603 1085 632 1121 q 525 1050 574 1050 q 482 1058 503 1050 l 294 1138 l 294 1058 l 163 1058 z "},"ò":{"ha":819,"x_min":0,"x_max":819,"o":"m 819 846 l 0 846 l 0 882 l 53 935 l 0 988 l 0 1025 l 819 1025 l 819 988 l 767 935 l 819 882 l 819 846 m 637 733 q 684 690 637 733 q 731 514 731 647 q 637 295 731 381 q 408 210 543 210 q 181 295 275 210 q 88 514 88 381 q 181 733 88 647 q 408 818 274 818 q 637 733 543 818 m 549 384 q 577 408 549 384 q 606 514 606 432 q 549 644 606 596 q 408 693 493 693 q 269 645 325 693 q 213 514 213 597 q 269 384 213 432 q 408 336 325 336 q 549 384 493 336 m 819 0 l 0 0 l 0 36 l 53 89 l 0 142 l 0 179 l 819 179 l 819 142 l 767 89 l 819 36 l 819 0 m 231 1328 l 635 1169 l 588 1047 l 183 1206 l 231 1328 z "},"ó":{"ha":819,"x_min":0,"x_max":819,"o":"m 819 846 l 0 846 l 0 882 l 53 935 l 0 988 l 0 1025 l 819 1025 l 819 988 l 767 935 l 819 882 l 819 846 m 637 733 q 684 690 637 733 q 731 514 731 647 q 637 295 731 381 q 408 210 543 210 q 181 295 275 210 q 88 514 88 381 q 181 733 88 647 q 408 818 274 818 q 637 733 543 818 m 549 384 q 577 408 549 384 q 606 514 606 432 q 549 644 606 596 q 408 693 493 693 q 269 645 325 693 q 213 514 213 597 q 269 384 213 432 q 408 336 325 336 q 549 384 493 336 m 819 0 l 0 0 l 0 36 l 53 89 l 0 142 l 0 179 l 819 179 l 819 142 l 767 89 l 819 36 l 819 0 m 183 1174 l 588 1331 l 636 1208 l 232 1051 l 183 1174 z "},"ô":{"ha":819,"x_min":0,"x_max":819,"o":"m 819 846 l 0 846 l 0 882 l 53 935 l 0 988 l 0 1025 l 819 1025 l 819 988 l 767 935 l 819 882 l 819 846 m 637 733 q 684 690 637 733 q 731 514 731 647 q 637 295 731 381 q 408 210 543 210 q 181 295 275 210 q 88 514 88 381 q 181 733 88 647 q 408 818 274 818 q 637 733 543 818 m 549 384 q 577 408 549 384 q 606 514 606 432 q 549 644 606 596 q 408 693 493 693 q 269 645 325 693 q 213 514 213 597 q 269 384 213 432 q 408 336 325 336 q 549 384 493 336 m 819 0 l 0 0 l 0 36 l 53 89 l 0 142 l 0 179 l 819 179 l 819 142 l 767 89 l 819 36 l 819 0 m 176 1161 l 410 1286 l 642 1161 l 579 1047 l 410 1139 l 236 1047 l 176 1161 z "},"õ":{"ha":819,"x_min":0,"x_max":819,"o":"m 819 846 l 0 846 l 0 882 l 53 935 l 0 988 l 0 1025 l 819 1025 l 819 988 l 767 935 l 819 882 l 819 846 m 637 733 q 684 690 637 733 q 731 514 731 647 q 637 295 731 381 q 408 210 543 210 q 181 295 275 210 q 88 514 88 381 q 181 733 88 647 q 408 818 274 818 q 637 733 543 818 m 549 384 q 577 408 549 384 q 606 514 606 432 q 549 644 606 596 q 408 693 493 693 q 269 645 325 693 q 213 514 213 597 q 269 384 213 432 q 408 336 325 336 q 549 384 493 336 m 819 0 l 0 0 l 0 36 l 53 89 l 0 142 l 0 179 l 819 179 l 819 142 l 767 89 l 819 36 l 819 0 m 175 1058 l 175 1160 q 205 1245 175 1210 q 283 1281 235 1281 q 325 1272 300 1281 l 514 1193 l 514 1268 l 644 1268 l 644 1171 q 615 1085 644 1121 q 538 1050 586 1050 q 494 1058 515 1050 l 307 1138 l 307 1058 l 175 1058 z "},"ö":{"ha":819,"x_min":0,"x_max":819,"o":"m 819 846 l 0 846 l 0 882 l 53 935 l 0 988 l 0 1025 l 819 1025 l 819 988 l 767 935 l 819 882 l 819 846 m 637 733 q 684 690 637 733 q 731 514 731 647 q 637 295 731 381 q 408 210 543 210 q 181 295 275 210 q 88 514 88 381 q 181 733 88 647 q 408 818 274 818 q 637 733 543 818 m 549 384 q 577 408 549 384 q 606 514 606 432 q 549 644 606 596 q 408 693 493 693 q 269 645 325 693 q 213 514 213 597 q 269 384 213 432 q 408 336 325 336 q 549 384 493 336 m 819 0 l 0 0 l 0 36 l 53 89 l 0 142 l 0 179 l 819 179 l 819 142 l 767 89 l 819 36 l 819 0 m 447 1206 l 592 1206 l 592 1060 l 447 1060 l 447 1206 m 226 1206 l 372 1206 l 372 1060 l 226 1060 l 226 1206 z "},"÷":{"ha":613,"x_min":44,"x_max":568,"o":"m 375 820 q 390 806 375 820 q 404 751 404 792 q 376 682 404 711 q 307 653 347 653 q 238 681 267 653 q 208 750 208 710 q 237 819 208 790 q 306 849 265 849 q 375 820 346 849 m 568 447 l 44 447 l 44 614 l 568 614 l 568 447 m 404 306 q 376 238 404 267 q 307 208 347 208 q 238 237 267 208 q 208 306 208 265 q 237 375 208 346 q 306 404 265 404 q 375 375 346 404 q 404 306 404 346 z "},"ø":{"ha":819,"x_min":0,"x_max":819,"o":"m 819 0 l 0 0 l 0 36 l 53 89 l 0 142 l 0 179 l 154 179 l 215 268 q 88 514 88 354 q 181 733 88 647 q 408 818 274 818 q 565 783 493 818 l 608 846 l 0 846 l 0 882 l 53 935 l 0 988 l 0 1025 l 819 1025 l 819 988 l 767 935 l 819 882 l 819 846 l 661 846 l 603 761 q 731 514 731 675 q 637 295 731 381 q 408 210 543 210 q 253 246 328 210 l 207 179 l 819 179 l 819 142 l 767 89 l 819 36 l 819 0 m 606 514 q 532 658 606 606 l 324 351 q 408 336 360 336 q 549 384 493 336 q 606 514 606 432 m 494 678 q 408 693 458 693 q 269 645 325 693 q 213 514 213 597 q 285 371 213 422 l 494 678 z "},"ù":{"ha":754,"x_min":0,"x_max":754,"o":"m 754 846 l 0 846 l 0 882 l 53 935 l 0 988 l 0 1025 l 754 1025 l 754 988 l 701 935 l 754 882 l 754 846 m 656 446 q 572 270 656 333 q 375 207 489 207 q 178 270 261 207 q 94 446 94 333 l 94 814 l 219 814 l 219 446 q 266 361 219 392 q 375 331 313 331 q 484 361 438 331 q 531 446 531 392 l 531 814 l 656 814 l 656 446 m 754 0 l 0 0 l 0 36 l 53 89 l 0 142 l 0 179 l 754 179 l 754 142 l 701 89 l 754 36 l 754 0 m 199 1328 l 603 1169 l 556 1047 l 151 1206 l 199 1328 z "},"ú":{"ha":754,"x_min":0,"x_max":754,"o":"m 754 846 l 0 846 l 0 882 l 53 935 l 0 988 l 0 1025 l 754 1025 l 754 988 l 701 935 l 754 882 l 754 846 m 656 446 q 572 270 656 333 q 375 207 489 207 q 178 270 261 207 q 94 446 94 333 l 94 814 l 219 814 l 219 446 q 266 361 219 392 q 375 331 313 331 q 484 361 438 331 q 531 446 531 392 l 531 814 l 656 814 l 656 446 m 754 0 l 0 0 l 0 36 l 53 89 l 0 142 l 0 179 l 754 179 l 754 142 l 701 89 l 754 36 l 754 0 m 150 1174 l 554 1331 l 603 1208 l 199 1051 l 150 1174 z "},"û":{"ha":754,"x_min":0,"x_max":754,"o":"m 754 846 l 0 846 l 0 882 l 53 935 l 0 988 l 0 1025 l 754 1025 l 754 988 l 701 935 l 754 882 l 754 846 m 656 446 q 572 270 656 333 q 375 207 489 207 q 178 270 261 207 q 94 446 94 333 l 94 814 l 219 814 l 219 446 q 266 361 219 392 q 375 331 313 331 q 484 361 438 331 q 531 446 531 392 l 531 814 l 656 814 l 656 446 m 754 0 l 0 0 l 0 36 l 53 89 l 0 142 l 0 179 l 754 179 l 754 142 l 701 89 l 754 36 l 754 0 m 144 1161 l 378 1286 l 610 1161 l 547 1047 l 378 1139 l 204 1047 l 144 1161 z "},"ü":{"ha":754,"x_min":0,"x_max":754,"o":"m 754 846 l 0 846 l 0 882 l 53 935 l 0 988 l 0 1025 l 754 1025 l 754 988 l 701 935 l 754 882 l 754 846 m 656 446 q 572 270 656 333 q 375 207 489 207 q 178 270 261 207 q 94 446 94 333 l 94 814 l 219 814 l 219 446 q 266 361 219 392 q 375 331 313 331 q 484 361 438 331 q 531 446 531 392 l 531 814 l 656 814 l 656 446 m 754 0 l 0 0 l 0 36 l 53 89 l 0 142 l 0 179 l 754 179 l 754 142 l 701 89 l 754 36 l 754 0 m 415 1206 l 560 1206 l 560 1060 l 415 1060 l 415 1206 m 194 1206 l 340 1206 l 340 1060 l 194 1060 l 194 1206 z "},"ý":{"ha":786,"x_min":0,"x_max":786,"o":"m 786 846 l 0 846 l 0 882 l 53 935 l 0 988 l 0 1025 l 786 1025 l 786 988 l 733 935 l 786 882 l 786 846 m 686 814 l 454 519 l 454 211 l 329 211 l 329 519 l 99 814 l 257 814 l 392 643 l 526 814 l 686 814 m 786 0 l 0 0 l 0 36 l 53 89 l 0 142 l 0 179 l 786 179 l 786 142 l 733 89 l 786 36 l 786 0 m 167 1174 l 571 1331 l 619 1208 l 215 1051 l 167 1174 z "},"þ":{"ha":556,"x_min":0,"x_max":556,"o":"m 556 846 l 0 846 l 0 882 l 53 935 l 0 988 l 0 1025 l 556 1025 l 556 988 l 503 935 l 556 882 l 556 846 m 504 429 q 435 355 482 383 q 321 326 388 326 l 217 326 l 217 210 l 92 210 l 92 814 l 217 814 l 217 697 l 289 697 q 460 639 399 697 q 522 504 522 581 q 504 429 522 464 m 397 504 q 362 556 396 539 q 289 572 328 572 l 217 572 l 217 451 l 321 451 q 374 465 351 451 q 397 504 397 478 m 556 0 l 0 0 l 0 36 l 53 89 l 0 142 l 0 179 l 556 179 l 556 142 l 503 89 l 556 36 l 556 0 z "},"ÿ":{"ha":786,"x_min":0,"x_max":786,"o":"m 786 846 l 0 846 l 0 882 l 53 935 l 0 988 l 0 1025 l 786 1025 l 786 988 l 733 935 l 786 882 l 786 846 m 686 814 l 454 519 l 454 211 l 329 211 l 329 519 l 99 814 l 257 814 l 392 643 l 526 814 l 686 814 m 786 0 l 0 0 l 0 36 l 53 89 l 0 142 l 0 179 l 786 179 l 786 142 l 733 89 l 786 36 l 786 0 m 431 1206 l 575 1206 l 575 1060 l 431 1060 l 431 1206 m 210 1206 l 356 1206 l 356 1060 l 210 1060 l 210 1206 z "},"Œ":{"ha":1367,"x_min":44,"x_max":1322,"o":"m 1322 0 l 597 0 q 206 142 367 0 q 44 511 44 283 q 206 881 44 739 q 597 1022 367 1022 l 1310 1022 l 1310 856 l 899 856 l 899 594 l 1292 594 l 1292 428 l 899 428 l 899 167 l 1322 167 l 1322 0 m 732 167 l 732 856 l 657 856 q 465 837 544 856 q 315 756 385 818 q 211 511 211 660 q 315 265 211 361 q 463 185 383 203 q 657 167 542 167 l 732 167 z "},"œ":{"ha":1024,"x_min":0,"x_max":1024,"o":"m 1024 846 l 0 846 l 0 882 l 53 935 l 0 988 l 0 1025 l 1024 1025 l 1024 988 l 971 935 l 1024 882 l 1024 846 m 935 211 l 574 211 l 574 271 q 376 210 489 210 q 149 295 242 210 q 56 514 56 381 q 148 733 56 647 q 376 818 240 818 q 574 758 490 818 l 574 814 l 922 814 l 922 689 l 699 689 l 699 575 l 913 575 l 913 450 l 699 450 l 699 336 l 935 336 l 935 211 m 516 384 q 544 408 516 384 q 572 514 572 432 q 516 644 572 596 q 376 693 460 693 q 237 645 293 693 q 181 514 181 597 q 237 384 181 432 q 376 336 293 336 q 516 384 460 336 m 1024 0 l 0 0 l 0 36 l 53 89 l 0 142 l 0 179 l 1024 179 l 1024 142 l 971 89 l 1024 36 l 1024 0 z "},"Š":{"ha":704,"x_min":44,"x_max":660,"o":"m 213 768 q 246 688 213 725 q 328 624 279 650 q 436 561 378 597 q 544 488 494 525 q 626 388 593 450 q 660 249 660 325 q 562 47 660 125 q 332 -32 464 -32 q 68 56 203 -32 l 68 269 q 191 176 118 218 q 325 135 264 135 q 440 165 388 135 q 493 250 493 194 q 478 314 493 285 q 432 369 464 343 q 376 408 400 394 q 307 447 353 422 q 207 505 244 481 q 127 568 169 529 q 65 657 85 607 q 44 768 44 707 q 137 966 44 886 q 372 1046 229 1046 q 590 983 482 1046 l 590 774 q 488 849 546 819 q 372 879 429 879 q 263 850 314 879 q 213 768 213 821 m 599 1188 l 365 1063 l 133 1188 l 196 1301 l 365 1210 l 539 1301 l 599 1188 z "},"š":{"ha":536,"x_min":0,"x_max":536,"o":"m 536 846 l 0 846 l 0 882 l 53 935 l 0 988 l 0 1025 l 536 1025 l 536 988 l 483 935 l 536 882 l 536 846 m 472 379 q 410 253 472 297 q 264 208 349 208 q 88 267 176 208 l 100 417 q 265 335 179 335 q 292 337 276 335 q 328 348 308 339 q 347 372 347 357 q 329 409 347 390 q 295 438 311 428 q 240 471 279 449 q 167 517 194 497 q 115 574 140 536 q 89 654 89 611 q 147 771 89 725 q 293 817 204 817 q 442 776 369 817 l 429 632 q 296 692 367 692 q 215 656 215 692 q 221 636 215 646 q 241 616 226 626 q 267 598 256 606 q 301 577 278 590 q 338 557 325 564 q 472 379 468 478 m 536 0 l 0 0 l 0 36 l 53 89 l 0 142 l 0 179 l 536 179 l 536 142 l 483 89 l 536 36 l 536 0 m 501 1172 l 268 1047 l 36 1172 l 99 1286 l 268 1194 l 442 1286 l 501 1172 z "},"Ÿ":{"ha":1031,"x_min":44,"x_max":986,"o":"m 986 1025 l 599 531 l 599 0 l 432 0 l 432 531 l 44 1025 l 256 1025 l 515 694 l 774 1025 l 986 1025 m 553 1121 l 697 1121 l 697 975 l 553 975 l 553 1121 m 332 1121 l 478 1121 l 478 975 l 332 975 l 332 1121 z "},"Ž":{"ha":1021,"x_min":44,"x_max":976,"o":"m 976 1024 l 367 167 l 968 167 l 968 0 l 44 0 l 654 857 l 85 857 l 85 1024 l 976 1024 m 743 1172 l 510 1047 l 278 1172 l 340 1286 l 510 1194 l 683 1286 l 743 1172 z "},"ž":{"ha":708,"x_min":0,"x_max":708,"o":"m 708 846 l 0 846 l 0 882 l 53 935 l 0 988 l 0 1025 l 708 1025 l 708 988 l 656 935 l 708 882 l 708 846 m 647 814 l 322 336 l 610 336 l 610 211 l 85 211 l 410 689 l 140 689 l 140 814 l 647 814 m 708 0 l 0 0 l 0 36 l 53 89 l 0 142 l 0 179 l 708 179 l 708 142 l 656 89 l 708 36 l 708 0 m 586 1172 l 353 1047 l 121 1172 l 183 1286 l 353 1194 l 526 1286 l 586 1172 z "},"ƒ":{"ha":1136,"x_min":44,"x_max":1092,"o":"m 618 581 l 644 581 q 643 561 644 568 q 664 564 654 564 q 724 550 697 564 q 754 508 750 536 q 824 521 781 521 q 901 499 869 521 q 933 435 933 476 q 921 394 933 414 q 910 389 917 389 q 896 401 896 389 q 899 410 896 404 q 907 435 907 419 q 886 476 907 460 q 836 493 865 493 q 738 465 776 493 q 699 407 699 436 q 754 367 699 367 q 794 374 774 367 q 799 375 796 375 q 813 360 813 375 q 768 283 808 317 q 676 254 728 254 q 568 301 607 254 q 460 254 529 254 q 368 283 408 254 q 324 360 328 317 q 336 375 324 375 q 340 374 340 375 q 382 367 364 367 q 440 407 440 367 q 400 465 440 436 q 299 493 360 493 q 249 476 269 493 q 229 435 229 460 q 238 410 229 419 q 240 401 240 404 q 226 389 240 389 q 215 394 219 389 q 203 435 203 414 q 235 499 203 476 q 313 521 267 521 q 382 508 356 521 q 413 549 386 535 q 469 564 440 564 q 493 561 479 564 q 492 585 492 568 q 499 643 492 618 q 515 667 506 667 q 531 643 524 667 q 536 610 533 631 l 511 581 l 538 581 q 533 544 538 558 q 557 503 557 528 q 518 450 557 467 q 478 417 478 431 q 507 383 478 394 q 568 371 536 371 q 629 383 600 371 q 658 417 658 394 q 618 450 658 432 q 579 503 579 467 q 603 544 579 528 q 599 585 599 561 q 606 643 599 618 q 621 667 613 667 q 638 643 631 667 l 643 610 l 618 581 m 667 546 q 615 532 636 546 q 596 503 596 519 q 615 472 596 485 q 667 458 636 458 q 718 472 694 458 q 736 503 736 486 q 718 532 736 518 q 667 546 694 546 m 469 546 q 418 532 442 546 q 400 503 400 518 q 418 472 400 486 q 469 458 442 458 q 521 472 500 458 q 540 503 540 485 q 521 532 540 519 q 469 546 500 546 m 660 372 q 568 344 626 344 q 476 372 510 344 q 382 340 436 340 q 354 343 374 340 q 396 297 367 313 q 460 281 425 281 q 557 331 526 281 q 568 338 561 338 q 579 331 576 338 q 676 281 608 281 q 739 297 710 281 q 781 343 768 314 q 754 340 764 340 q 660 372 700 340 m 465 746 q 303 600 303 710 q 304 581 303 594 q 306 560 306 568 q 292 546 306 546 q 281 558 281 546 q 276 600 276 574 q 342 763 276 694 q 272 857 283 796 q 285 869 272 869 q 299 858 297 869 q 346 792 308 817 q 426 768 383 768 q 502 790 467 768 q 550 849 538 811 q 563 858 551 858 q 575 849 575 858 q 624 790 588 811 q 700 768 660 768 q 781 793 743 768 q 828 858 818 818 q 840 869 828 869 q 853 853 853 869 q 790 767 843 800 q 860 600 860 694 q 856 558 860 581 q 843 546 853 546 q 829 564 829 546 q 833 600 833 583 q 692 743 833 717 q 563 814 597 758 q 465 746 531 761 m 974 156 q 800 81 901 81 q 685 53 747 53 l 671 53 q 568 29 621 29 q 465 53 515 29 l 451 53 q 336 81 389 53 q 163 156 233 81 q 44 349 44 239 q 118 504 44 433 q 83 636 83 574 q 228 890 83 785 q 568 993 368 993 q 908 890 768 993 q 1053 636 1053 785 q 1018 504 1053 574 q 1092 349 1092 433 q 974 156 1092 239 m 844 113 q 954 174 910 126 q 999 288 999 222 q 964 389 999 343 q 961 397 961 392 q 974 411 961 411 q 985 404 981 411 q 1025 288 1025 353 q 1017 229 1025 265 q 1065 349 1065 288 q 993 492 1065 425 q 989 501 989 496 q 990 508 989 506 q 1025 636 1025 569 q 892 869 1025 772 q 568 968 757 968 q 244 869 379 968 q 111 636 111 772 q 146 508 111 569 q 147 503 147 507 q 143 492 147 496 q 71 349 71 425 q 119 229 71 288 q 111 288 111 265 q 151 404 111 353 q 163 411 156 411 q 175 397 175 411 q 172 389 175 392 q 138 288 138 343 q 182 174 138 222 q 292 113 226 126 q 225 258 225 176 q 271 379 225 326 q 281 386 275 386 q 294 374 294 386 q 290 364 294 368 q 253 258 253 315 q 302 141 253 190 q 419 81 351 92 q 343 235 343 143 q 356 250 343 250 q 369 235 369 250 q 430 107 369 158 q 568 56 490 56 q 706 107 646 56 q 767 235 767 158 q 781 250 767 250 q 793 235 793 250 q 717 81 793 143 q 834 141 785 92 q 883 258 883 190 q 846 364 883 315 q 842 374 842 368 q 856 386 842 386 q 865 379 861 386 q 911 258 911 326 q 844 113 911 176 z "},"ˆ":{"ha":554,"x_min":44,"x_max":510,"o":"m 44 1161 l 278 1286 l 510 1161 l 447 1047 l 278 1139 l 104 1047 l 44 1161 z "},"ˇ":{"ha":554,"x_min":44,"x_max":510,"o":"m 510 1172 l 276 1047 l 44 1172 l 107 1286 l 276 1194 l 450 1286 l 510 1172 z "},"˚":{"ha":492,"x_min":74,"x_max":414,"o":"m 243 1001 q 124 1047 174 1001 q 74 1163 74 1092 q 123 1278 74 1233 q 243 1324 172 1324 q 365 1278 315 1324 q 414 1163 414 1233 q 364 1047 414 1092 q 243 1001 314 1001 m 243 1233 q 187 1214 210 1233 q 164 1163 164 1194 q 187 1112 164 1131 q 243 1093 210 1093 q 301 1112 278 1093 q 324 1163 324 1131 q 301 1214 324 1194 q 243 1233 278 1233 z "},"˜":{"ha":569,"x_min":51,"x_max":521,"o":"m 51 1058 l 51 1160 q 81 1245 51 1210 q 160 1281 111 1281 q 201 1272 176 1281 l 390 1193 l 390 1268 l 521 1268 l 521 1171 q 492 1085 521 1121 q 414 1050 463 1050 q 371 1058 392 1050 l 183 1138 l 183 1058 l 51 1058 z "},"–":{"ha":554,"x_min":44,"x_max":510,"o":"m 510 463 l 44 463 l 44 629 l 510 629 l 510 463 z "},"—":{"ha":1039,"x_min":44,"x_max":994,"o":"m 994 463 l 44 463 l 44 629 l 994 629 l 994 463 z "},"‘":{"ha":285,"x_min":44,"x_max":240,"o":"m 240 806 q 215 744 240 768 q 151 719 189 719 q 72 761 99 719 q 44 853 44 803 q 96 1000 44 929 q 221 1079 147 1071 l 221 1058 q 157 896 160 993 q 216 867 192 893 q 240 806 240 842 z "},"’":{"ha":285,"x_min":44,"x_max":240,"o":"m 44 993 q 70 1055 44 1031 q 133 1079 96 1079 q 213 1038 186 1079 q 240 946 240 996 q 189 799 240 869 q 64 719 138 728 l 64 740 q 128 903 125 806 q 69 931 93 906 q 44 993 44 957 z "},"‚":{"ha":590,"x_min":0,"x_max":590,"o":"m 590 846 l 0 846 l 0 882 l 53 935 l 0 988 l 0 1025 l 590 1025 l 590 988 l 538 935 l 590 882 l 590 846 m 531 521 q 520 416 531 468 q 487 313 510 364 q 418 231 464 263 q 311 200 372 200 q 205 231 250 200 q 138 313 160 263 q 105 416 115 364 q 94 521 94 468 q 105 624 94 574 q 139 724 115 675 q 207 803 163 774 q 313 833 251 833 q 417 803 372 833 q 485 723 463 772 q 519 623 508 674 q 531 521 531 572 m 396 517 q 391 588 396 551 q 366 661 386 624 q 313 699 346 699 q 248 639 267 699 q 229 517 229 579 q 249 394 229 453 q 311 336 268 336 q 363 369 343 336 q 390 440 383 403 q 396 517 396 478 m 590 0 l 0 0 l 0 36 l 53 89 l 0 142 l 0 179 l 590 179 l 590 142 l 538 89 l 590 36 l 590 0 z "},"“":{"ha":499,"x_min":44,"x_max":454,"o":"m 240 806 q 215 744 240 768 q 151 719 189 719 q 72 761 99 719 q 44 853 44 803 q 96 1000 44 929 q 221 1079 147 1071 l 221 1058 q 157 896 160 993 q 216 867 192 893 q 240 806 240 842 m 454 806 q 428 744 454 768 q 365 719 403 719 q 285 761 313 719 q 258 853 258 803 q 310 1000 258 929 q 435 1079 361 1071 l 435 1058 q 371 896 374 993 q 430 867 406 893 q 454 806 454 842 z "},"”":{"ha":499,"x_min":44,"x_max":454,"o":"m 258 993 q 284 1055 258 1031 q 347 1079 310 1079 q 427 1038 400 1079 q 454 946 454 996 q 403 799 454 869 q 278 719 351 728 l 278 740 q 342 903 339 806 q 283 931 307 906 q 258 993 258 957 m 44 993 q 70 1055 44 1031 q 133 1079 96 1079 q 213 1038 186 1079 q 240 946 240 996 q 189 799 240 869 q 64 719 138 728 l 64 740 q 128 903 125 806 q 69 931 93 906 q 44 993 44 957 z "},"„":{"ha":575,"x_min":0,"x_max":575,"o":"m 504 386 l 454 386 l 454 210 l 318 210 l 318 386 l 79 386 l 79 493 q 365 836 96 514 l 454 836 l 454 521 l 504 521 l 504 386 m 575 846 l 0 846 l 0 882 l 53 935 l 0 988 l 0 1025 l 575 1025 l 575 988 l 522 935 l 575 882 l 575 846 m 575 0 l 0 0 l 0 36 l 53 89 l 0 142 l 0 179 l 575 179 l 575 142 l 522 89 l 575 36 l 575 0 m 318 521 l 318 571 l 276 521 l 318 521 z "},"†":{"ha":539,"x_min":0,"x_max":539,"o":"m 539 846 l 0 846 l 0 882 l 53 935 l 0 988 l 0 1025 l 539 1025 l 539 988 l 486 935 l 539 882 l 539 846 m 286 588 q 423 532 367 588 q 479 393 479 476 q 423 256 479 311 q 281 200 367 200 q 131 267 183 200 q 78 426 78 335 q 150 665 78 553 q 336 842 222 778 q 422 733 364 806 q 257 586 315 683 q 286 588 267 588 m 344 392 q 286 453 344 453 q 213 429 249 453 q 276 335 213 335 q 344 392 344 335 m 539 0 l 0 0 l 0 36 l 53 89 l 0 142 l 0 179 l 539 179 l 539 142 l 486 89 l 539 36 l 539 0 z "},"‡":{"ha":575,"x_min":0,"x_max":575,"o":"m 575 846 l 0 846 l 0 882 l 53 935 l 0 988 l 0 1025 l 575 1025 l 575 988 l 522 935 l 575 882 l 575 846 m 575 0 l 0 0 l 0 36 l 53 89 l 0 142 l 0 179 l 146 179 l 86 203 l 300 689 l 79 689 l 79 824 l 507 824 l 222 179 l 575 179 l 575 142 l 522 89 l 575 36 l 575 0 z "},"•":{"ha":506,"x_min":44,"x_max":461,"o":"m 400 684 q 431 654 400 684 q 461 538 461 624 q 400 390 461 451 q 253 329 339 329 q 106 390 167 329 q 44 536 44 450 q 106 683 44 622 q 253 744 167 744 q 400 684 339 744 z "},"…":{"ha":500,"x_min":0,"x_max":500,"o":"m 500 846 l 0 846 l 0 882 l 53 935 l 0 988 l 0 1025 l 500 1025 l 500 988 l 449 935 l 500 882 l 500 846 m 379 554 q 409 526 379 554 q 439 407 439 499 q 369 255 439 315 q 204 194 300 194 q 68 228 139 194 l 68 403 q 203 329 132 329 q 274 351 244 329 q 304 408 304 372 q 273 466 304 444 q 194 488 242 488 l 97 488 l 97 824 l 410 824 l 410 689 l 232 689 l 232 619 q 379 554 319 610 m 500 0 l 0 0 l 0 36 l 53 89 l 0 142 l 0 179 l 500 179 l 500 142 l 449 89 l 500 36 l 500 0 z "},"‰":{"ha":544,"x_min":0,"x_max":544,"o":"m 544 846 l 0 846 l 0 882 l 53 935 l 0 988 l 0 1025 l 544 1025 l 544 988 l 492 935 l 544 882 l 544 846 m 489 379 q 425 244 489 300 q 278 189 361 189 q 133 243 197 189 q 69 381 69 297 q 125 511 69 456 q 81 635 81 565 q 136 776 81 715 q 279 836 192 836 q 421 776 365 836 q 476 636 476 715 q 432 511 476 565 q 489 379 489 457 m 234 592 q 243 583 234 592 q 278 574 253 574 q 323 592 303 574 q 343 636 343 610 q 325 682 343 663 q 279 701 307 701 q 234 683 253 701 q 215 638 215 664 q 234 592 215 611 m 330 338 q 342 346 330 338 q 354 381 354 354 q 330 423 354 407 q 279 439 306 439 q 228 423 253 439 q 204 381 204 407 q 228 338 204 354 q 279 322 253 322 q 330 338 306 322 m 544 0 l 0 0 l 0 36 l 53 89 l 0 142 l 0 179 l 544 179 l 544 142 l 492 89 l 544 36 l 544 0 z "},"‹":{"ha":438,"x_min":44,"x_max":393,"o":"m 393 214 l 268 214 l 44 549 l 268 883 l 393 883 l 169 549 l 393 214 z "},"›":{"ha":438,"x_min":44,"x_max":393,"o":"m 169 214 l 44 214 l 268 549 l 44 883 l 169 883 l 393 549 l 169 214 z "},"€":{"ha":1064,"x_min":49,"x_max":1015,"o":"m 1015 990 l 926 846 q 719 885 807 885 q 474 817 572 885 q 336 643 376 750 l 801 643 l 736 539 l 313 539 q 312 519 313 532 q 311 500 311 506 q 312 490 311 497 q 313 479 313 483 l 700 479 l 636 375 l 333 375 q 465 201 369 268 q 706 133 560 133 q 911 172 799 133 l 911 -3 q 703 -35 794 -35 q 342 82 485 -35 q 160 375 199 199 l 49 375 l 49 479 l 146 479 q 144 499 144 486 q 146 539 144 525 l 49 539 l 49 643 l 163 643 q 350 935 203 818 q 719 1051 497 1051 q 1015 990 863 1051 z "},"™":{"ha":646,"x_min":44,"x_max":601,"o":"m 601 744 l 540 744 l 540 939 l 461 838 l 383 939 l 383 744 l 321 744 l 321 1036 l 385 1036 l 461 938 l 539 1036 l 601 1036 l 601 744 m 296 975 l 201 975 l 201 744 l 139 744 l 139 975 l 44 975 l 44 1036 l 296 1036 l 296 975 z "},"−":{"ha":613,"x_min":44,"x_max":568,"o":"m 568 447 l 44 447 l 44 614 l 568 614 l 568 447 z "}}}
